M48
;Layer_Color=6321
;FILE_FORMAT=4:4
METRIC,LZ
;TYPE=PLATED
T1F00S00C0.4000
T2F00S00C0.6000
T3F00S00C1.0000
T4F00S00C1.1999
T5F00S00C1.5999
%
T01
X0026716Y00334731
Y00344892
Y00355051
Y00365211
X0027732Y00334731
X0028748
X0029764
X00397Y00374571
X00417
X00437
X00397Y00394571
X00527Y00374571
X00607
X00627
X00647
X00667
X00687
X00707
X00727
X00747
X00767
X00787
Y00394571
X0103932Y00334731
X0104948
X0105964
X010698
Y00344892
Y00355051
Y00365211
X01054078Y00661603
X0104186
X0102827Y00670012
X0104186Y00700491
X010698Y00781771
Y00791932
X00882348Y00784819
X00897588Y00768564
X00893524Y00695666
X0088057
X00930608Y00669503
X00918416Y00633436
X00905462Y00616671
X0094407Y00623783
X00787Y00604571
Y00574571
Y00554571
Y00534571
Y00494571
Y00474571
Y00454571
Y00434571
Y00414571
X00777Y00644572
X00757
X00737
X00717
X00697
X00677
X00668734Y006375
X00655752Y0061004
X00648654Y00602942
X00641556Y00595844
X00577Y00644572
X00557
X00537
X00497
X00477
X00457
X00437
X00417
X00397
Y00624571
Y00584571
Y00544571
Y00524571
Y00484571
Y00454571
Y00434571
Y00414571
X0042464Y0050662
X004348Y00497291
X0044242Y00705572
X0045512
X0054656Y00789391
X0055672
X0056688
X0057958Y00769072
X0058847Y00775422
Y00761451
X0062784Y00763991
X006507Y00758912
Y00748752
Y00738592
Y00769072
Y00779231
X006634Y00710651
X0067356
X0068372
X00705818Y00713192
Y00723352
Y00733512
Y00743418
Y00703031
X0035352Y00609052
X0033828
X0026716Y00781771
Y00791932
Y00802092
Y00812252
X0027732
X0028748
X0029764
X0054275Y00810982
X0055164
X0103932Y00812252
X0104948
X0105964
X010698
Y00802092
T02
X00564186Y0038106
X00549889Y0056559
X00548592Y00588223
X00520132Y00628852
Y00646378
X00496014Y00518628
X0062657Y00592542
X0077643Y00591017
T03
X0089708Y00429981
X0092248
X0098979
X0101519
X01019Y00770341
X010444
X009936
X009682
T04
X00341Y0064232
Y0068042
Y0071852
Y0075662
T05
X00341Y0039232
Y0043042
Y0046852
Y0050662
Y0054472
Y0058282
M30
