M48
;Layer_Color=6321
;FILE_FORMAT=4:4
METRIC,LZ
T6F00S00C5.0800
%
G90
G05
T06
G00X01084048Y00299678
M15
G01X01088895Y00301178
G01X01093347Y00303612
G01X01097227Y00306881
G01X01100379Y00310857
G01X01102678Y0031538
G01X01104033Y00320269
G01X011044Y00324572
G01X011044Y00823174
G01X01103893Y00828222
G01X01102393Y00833069
G01X0109996Y00837521
G01X0109669Y008414
G01X01092715Y00844553
G01X01088192Y00846852
G01X01083302Y00848207
G01X01079Y00848574
G01X00257Y00848574
G01X00251951Y00848067
G01X00247105Y00846567
G01X00242653Y00844134
G01X00238773Y00840864
G01X00235621Y00836888
G01X00233321Y00832366
G01X00231967Y00827476
G01X002316Y00823174
G01X002316Y00324572
G01X00232107Y00319523
G01X00233607Y00314676
G01X0023604Y00310224
G01X0023931Y00306345
G01X00243285Y00303193
G01X00247808Y00300893
G01X00252697Y00299539
G01X00257Y00299172
G01X01079Y00299172
G01X01084048Y00299678
M16
M17
M30
