G04*
G04 #@! TF.GenerationSoftware,Altium Limited,CircuitStudio,1.5.1 (1.5.1.13)*
G04*
G04 Layer_Color=16755269*
%FSLAX44Y44*%
%MOMM*%
G71*
G01*
G75*
%ADD77C,0.2032*%
%ADD79C,0.1999*%
%ADD82C,0.1001*%
D77*
X736552Y735798D02*
Y801329D01*
Y735798D02*
X772112D01*
Y801329D01*
X736552D02*
X772112D01*
D79*
X597592Y565590D02*
X603592D01*
X597592Y531300D02*
X603592D01*
X458281Y552890D02*
X481283D01*
X489642Y611310D02*
X495642D01*
X543442Y488049D02*
Y511051D01*
X742743Y512580D02*
Y591831D01*
X699741Y512580D02*
Y585580D01*
X655460Y724291D02*
Y778292D01*
X691660Y724291D02*
Y784042D01*
X537558Y738195D02*
X587057D01*
X537558Y688696D02*
X587057D01*
X352999Y642320D02*
Y782619D01*
X261000D02*
X352999D01*
X261000Y616320D02*
Y782619D01*
Y616320D02*
X341000D01*
Y365319D02*
X352999D01*
Y609820D01*
X259499D02*
X352999D01*
X259499Y392320D02*
Y609820D01*
X531253Y621440D02*
X563251D01*
Y522440D02*
Y621440D01*
X531253Y522440D02*
X563251D01*
X531253D02*
Y621440D01*
X512502Y623139D02*
X527752D01*
D82*
X816809Y387249D02*
Y397249D01*
X770810Y359751D02*
X780810D01*
X410811D02*
X420811D01*
X376810Y387249D02*
Y397249D01*
Y627251D02*
Y637251D01*
X410811Y664749D02*
X420811D01*
X770810D02*
X780810D01*
X816809Y627251D02*
Y637251D01*
M02*
