G04*
G04 #@! TF.GenerationSoftware,Altium Limited,CircuitStudio,1.5.1 (1.5.1.13)*
G04*
G04 Layer_Color=7318015*
%FSLAX44Y44*%
%MOMM*%
G71*
G01*
G75*
%ADD10R,0.9401X0.5400*%
%ADD11R,0.8700X0.9799*%
%ADD12R,0.9799X0.8700*%
%ADD13R,2.8199X1.2200*%
%ADD14R,0.5999X0.6500*%
%ADD15R,0.5999X0.8001*%
%ADD16R,0.8001X0.5999*%
%ADD17R,0.6500X0.5999*%
%ADD18R,0.4001X0.4001*%
%ADD19R,0.5999X0.5999*%
%ADD20R,1.1000X1.1000*%
%ADD21R,1.0000X0.9000*%
%ADD22R,0.9000X1.0000*%
%ADD23R,0.7000X0.9000*%
%ADD24R,0.9500X2.6000*%
%ADD25R,1.1500X1.8000*%
%ADD26R,1.8000X1.1500*%
%ADD27R,1.1000X1.1000*%
%ADD28R,0.9000X0.7000*%
%ADD29R,0.8000X0.6000*%
%ADD30R,0.6000X0.8000*%
%ADD31R,1.0000X1.5499*%
%ADD32R,1.0000X3.8001*%
%ADD33R,3.3000X1.0000*%
%ADD34R,3.8001X1.0000*%
%ADD35R,1.1500X1.4500*%
%ADD36R,2.6000X0.9500*%
%ADD37R,1.2200X2.8199*%
%ADD38R,2.4501X2.3500*%
%ADD39R,2.1501X2.1999*%
%ADD40R,0.8600X1.4500*%
%ADD41R,1.4500X0.8600*%
%ADD42R,3.5000X3.5000*%
%ADD43R,1.7000X1.0000*%
%ADD44R,1.6000X2.1500*%
%ADD45R,2.2499X4.3000*%
%ADD46R,2.1000X1.4000*%
%ADD47R,1.5250X0.6500*%
%ADD48R,2.1999X3.5999*%
%ADD49R,2.2352X1.2192*%
%ADD50R,2.0000X1.2000*%
%ADD51R,0.2500X0.6500*%
D10*
X600592Y557589D02*
D03*
Y573591D02*
D03*
Y523299D02*
D03*
Y539301D02*
D03*
X492642Y619311D02*
D03*
Y603309D02*
D03*
D11*
X578552Y508440D02*
D03*
X592152D02*
D03*
D12*
X594242Y442850D02*
D03*
Y429250D02*
D03*
X496452Y442850D02*
D03*
Y429250D02*
D03*
X634882Y542280D02*
D03*
Y555880D02*
D03*
D13*
X469782Y566890D02*
D03*
Y538890D02*
D03*
D14*
X665362Y502189D02*
D03*
Y514691D02*
D03*
X667902Y583469D02*
D03*
Y595971D02*
D03*
D15*
X655362Y508440D02*
D03*
X675362D02*
D03*
X657902Y589720D02*
D03*
X677902D02*
D03*
D16*
X565032Y442240D02*
D03*
Y422240D02*
D03*
X524392D02*
D03*
Y442240D02*
D03*
D17*
X558781Y432240D02*
D03*
X571283D02*
D03*
X530643D02*
D03*
X518141D02*
D03*
D18*
X604402Y607691D02*
D03*
Y599689D02*
D03*
Y637789D02*
D03*
Y645790D02*
D03*
Y592450D02*
D03*
Y584450D02*
D03*
X448192Y592450D02*
D03*
Y584450D02*
D03*
D19*
X612403Y603690D02*
D03*
X596401D02*
D03*
Y641790D02*
D03*
X612403D02*
D03*
Y588450D02*
D03*
X596401D02*
D03*
X456193D02*
D03*
X440191D02*
D03*
D20*
X730242Y485580D02*
D03*
X712242D02*
D03*
X994760Y668742D02*
D03*
X1012760D02*
D03*
X728972Y610040D02*
D03*
X710972D02*
D03*
D21*
X589162Y397060D02*
D03*
Y381060D02*
D03*
X617680Y799931D02*
D03*
Y783932D02*
D03*
X893016Y667346D02*
D03*
Y683345D02*
D03*
X880570Y667092D02*
D03*
Y683092D02*
D03*
X602440Y783932D02*
D03*
Y799931D02*
D03*
X843486Y601559D02*
D03*
Y617560D02*
D03*
X843740Y513929D02*
D03*
Y529930D02*
D03*
X617680Y748372D02*
D03*
Y764371D02*
D03*
X577040Y799931D02*
D03*
Y783932D02*
D03*
X923750Y748372D02*
D03*
Y764371D02*
D03*
X943054Y718146D02*
D03*
Y734146D02*
D03*
X602440Y764371D02*
D03*
Y748372D02*
D03*
D22*
X483440Y410932D02*
D03*
X467440D02*
D03*
X542624Y755356D02*
D03*
X558624D02*
D03*
X1028270Y683981D02*
D03*
X1012270D02*
D03*
X407240Y690331D02*
D03*
X391240D02*
D03*
X1057480Y711413D02*
D03*
X1041480D02*
D03*
D23*
X657122Y641790D02*
D03*
X643122D02*
D03*
D24*
X766808Y717255D02*
D03*
X738808D02*
D03*
D25*
X494730Y793202D02*
D03*
X524730D02*
D03*
D26*
X622760Y680412D02*
D03*
Y710412D02*
D03*
X648160Y680412D02*
D03*
Y710412D02*
D03*
D27*
X851360Y440252D02*
D03*
Y422252D02*
D03*
X947880Y440252D02*
D03*
Y422252D02*
D03*
X789130Y702922D02*
D03*
Y720921D02*
D03*
D28*
X924004Y733146D02*
D03*
Y719146D02*
D03*
X474862Y603070D02*
D03*
Y589070D02*
D03*
D29*
X942800Y397862D02*
D03*
Y383362D02*
D03*
X851360Y397862D02*
D03*
Y383362D02*
D03*
D30*
X807280Y732242D02*
D03*
X821780D02*
D03*
D31*
X815809Y373500D02*
D03*
Y651000D02*
D03*
X377811D02*
D03*
Y373500D02*
D03*
D32*
X815809Y422250D02*
D03*
Y482250D02*
D03*
Y542250D02*
D03*
Y602250D02*
D03*
X377811D02*
D03*
Y542250D02*
D03*
Y482250D02*
D03*
Y422250D02*
D03*
D33*
X804310Y663751D02*
D03*
X389310D02*
D03*
Y360749D02*
D03*
X804310D02*
D03*
D34*
X746810Y663751D02*
D03*
X686810D02*
D03*
X626810D02*
D03*
X566810D02*
D03*
X506810D02*
D03*
X446810D02*
D03*
Y360749D02*
D03*
X506810D02*
D03*
X566810D02*
D03*
X626810D02*
D03*
X686810D02*
D03*
X746810D02*
D03*
D35*
X1040480Y682458D02*
D03*
X1058480D02*
D03*
D36*
X818340Y753801D02*
D03*
Y781802D02*
D03*
D37*
X529441Y499550D02*
D03*
X557443D02*
D03*
D38*
X721242Y580081D02*
D03*
Y518079D02*
D03*
D39*
X673560Y729293D02*
D03*
Y773290D02*
D03*
D40*
X1045188Y646805D02*
D03*
X994388D02*
D03*
X1032488Y646805D02*
D03*
X1019788Y646805D02*
D03*
X1007088Y646805D02*
D03*
X981688Y646805D02*
D03*
X968988Y646805D02*
D03*
X956288Y646805D02*
D03*
X943588Y646805D02*
D03*
X930888Y646805D02*
D03*
X918188D02*
D03*
X905488Y646805D02*
D03*
X892788D02*
D03*
X880088D02*
D03*
Y470205D02*
D03*
X892788Y470205D02*
D03*
X905488D02*
D03*
X918188Y470205D02*
D03*
X930888Y470205D02*
D03*
X943588Y470205D02*
D03*
X956288D02*
D03*
X968988Y470205D02*
D03*
X981688Y470205D02*
D03*
X994388Y470205D02*
D03*
X1007088Y470205D02*
D03*
X1019788D02*
D03*
X1032488Y470205D02*
D03*
X1045188Y470205D02*
D03*
D41*
X866788Y615656D02*
D03*
Y602956D02*
D03*
X866788Y590256D02*
D03*
X866788Y577556D02*
D03*
Y564855D02*
D03*
Y552155D02*
D03*
Y539455D02*
D03*
Y526755D02*
D03*
Y514055D02*
D03*
Y501356D02*
D03*
D42*
X968788Y573106D02*
D03*
D43*
X1030942Y394117D02*
D03*
X967942D02*
D03*
X1030942Y356118D02*
D03*
X967942D02*
D03*
D44*
X415660Y746211D02*
D03*
X372660D02*
D03*
D45*
X542808Y713446D02*
D03*
X581807D02*
D03*
D46*
X495252Y725228D02*
D03*
Y769228D02*
D03*
D47*
X520132Y616390D02*
D03*
Y603690D02*
D03*
Y590990D02*
D03*
Y578290D02*
D03*
Y565590D02*
D03*
Y552890D02*
D03*
Y540190D02*
D03*
Y527490D02*
D03*
X574372D02*
D03*
Y540190D02*
D03*
Y552890D02*
D03*
Y565590D02*
D03*
Y578290D02*
D03*
Y590990D02*
D03*
Y603690D02*
D03*
Y616390D02*
D03*
D48*
X723341Y768564D02*
D03*
D49*
X785320Y791677D02*
D03*
Y768564D02*
D03*
Y745450D02*
D03*
D50*
X553926Y787614D02*
D03*
D51*
X543926Y773864D02*
D03*
X548926D02*
D03*
X553926D02*
D03*
X558926D02*
D03*
X563926D02*
D03*
Y801364D02*
D03*
X558926D02*
D03*
X553926D02*
D03*
X548926D02*
D03*
X543926D02*
D03*
M02*
