G04*
G04 #@! TF.GenerationSoftware,Altium Limited,CircuitStudio,1.5.1 (1.5.1.13)*
G04*
G04 Layer_Color=15065295*
%FSLAX44Y44*%
%MOMM*%
G71*
G01*
G75*
%ADD56C,0.2540*%
%ADD75C,0.5000*%
%ADD76C,0.2500*%
%ADD77C,0.2032*%
%ADD78C,0.0500*%
%ADD79C,0.1999*%
%ADD80C,0.2000*%
%ADD81C,0.4000*%
%ADD82C,0.1001*%
%ADD83C,0.1270*%
%ADD84C,0.1000*%
%ADD85C,0.1524*%
%ADD86R,2.0000X0.2000*%
%ADD87R,0.2540X0.2540*%
D56*
X965890Y429981D02*
G03*
X965890Y429981I-1500J0D01*
G01*
X873180D02*
G03*
X873180Y429981I-1500J0D01*
G01*
X1071300Y770341D02*
G03*
X1071300Y770341I-1500J0D01*
G01*
X504598Y616390D02*
G03*
X504598Y616390I-1796J0D01*
G01*
X976790Y416982D02*
Y442981D01*
Y416982D02*
X1027790D01*
Y442981D01*
X976790D02*
X1027790D01*
X884080D02*
X935080D01*
Y416982D02*
Y442981D01*
X884080Y416982D02*
X935080D01*
X884080D02*
Y442981D01*
X955400Y757342D02*
Y783342D01*
X1057400D01*
Y757342D02*
Y783342D01*
X955400Y757342D02*
X1057400D01*
X207094Y880701D02*
Y870545D01*
X222329D01*
Y880701D01*
X214711Y870545D02*
Y875623D01*
X222329Y885780D02*
X207094D01*
X222329Y895936D01*
X207094D01*
X209633Y911171D02*
X207094Y908632D01*
Y903554D01*
X209633Y901015D01*
X219790D01*
X222329Y903554D01*
Y908632D01*
X219790Y911171D01*
X207094Y916250D02*
X222329D01*
Y926406D01*
X207094Y939102D02*
Y934024D01*
X209633Y931485D01*
X219790D01*
X222329Y934024D01*
Y939102D01*
X219790Y941642D01*
X209633D01*
X207094Y939102D01*
X209633Y956877D02*
X207094Y954337D01*
Y949259D01*
X209633Y946720D01*
X212172D01*
X214711Y949259D01*
Y954337D01*
X217250Y956877D01*
X219790D01*
X222329Y954337D01*
Y949259D01*
X219790Y946720D01*
X207094Y961955D02*
X219790D01*
X222329Y964494D01*
Y969573D01*
X219790Y972112D01*
X207094D01*
X222329Y977190D02*
X207094D01*
Y984808D01*
X209633Y987347D01*
X214711D01*
X217250Y984808D01*
Y977190D01*
Y982268D02*
X222329Y987347D01*
X207094Y1002582D02*
Y992425D01*
X222329D01*
Y1002582D01*
X214711Y992425D02*
Y997504D01*
X222329Y1007660D02*
Y1012739D01*
Y1010199D01*
X207094D01*
X209633Y1007660D01*
X825965Y339812D02*
X841200D01*
X833582D01*
Y349968D01*
X825965D01*
X841200D01*
Y355047D02*
Y360125D01*
Y357586D01*
X825965D01*
X828504Y355047D01*
X637422Y651950D02*
Y662107D01*
X642500D01*
X644193Y660414D01*
Y657028D01*
X642500Y655336D01*
X637422D01*
X640808D02*
X644193Y651950D01*
X647579D02*
X650964D01*
X649271D01*
Y662107D01*
X647579Y660414D01*
X662814Y662107D02*
X656043D01*
Y657028D01*
X659428Y658721D01*
X661121D01*
X662814Y657028D01*
Y653643D01*
X661121Y651950D01*
X657735D01*
X656043Y653643D01*
X540464Y635464D02*
Y627000D01*
X542156Y625308D01*
X545542D01*
X547235Y627000D01*
Y635464D01*
X550620Y625308D02*
X554006D01*
X552313D01*
Y635464D01*
X550620Y633771D01*
X465280Y390611D02*
Y400768D01*
X470358D01*
X472051Y399075D01*
Y395690D01*
X470358Y393997D01*
X465280D01*
X468665D02*
X472051Y390611D01*
X482207Y400768D02*
X475436D01*
Y395690D01*
X478822Y397383D01*
X480515D01*
X482207Y395690D01*
Y392304D01*
X480515Y390611D01*
X477129D01*
X475436Y392304D01*
X473592Y611310D02*
X463435D01*
Y616388D01*
X465128Y618081D01*
X468514D01*
X470206Y616388D01*
Y611310D01*
Y614696D02*
X473592Y618081D01*
Y626545D02*
X463435D01*
X468514Y621467D01*
Y628238D01*
X609044Y380960D02*
X598887D01*
Y386038D01*
X600580Y387731D01*
X603965D01*
X605658Y386038D01*
Y380960D01*
Y384345D02*
X609044Y387731D01*
X600580Y391116D02*
X598887Y392809D01*
Y396195D01*
X600580Y397887D01*
X602273D01*
X603965Y396195D01*
Y394502D01*
Y396195D01*
X605658Y397887D01*
X607351D01*
X609044Y396195D01*
Y392809D01*
X607351Y391116D01*
X714454Y465288D02*
Y475444D01*
X719532D01*
X721225Y473751D01*
Y470366D01*
X719532Y468673D01*
X714454D01*
X717839D02*
X721225Y465288D01*
X731382D02*
X724610D01*
X731382Y472059D01*
Y473751D01*
X729689Y475444D01*
X726303D01*
X724610Y473751D01*
X742832Y602420D02*
Y612577D01*
X747910D01*
X749603Y610884D01*
Y607498D01*
X747910Y605806D01*
X742832D01*
X746218D02*
X749603Y602420D01*
X752989D02*
X756374D01*
X754681D01*
Y612577D01*
X752989Y610884D01*
X515485Y414738D02*
X508714D01*
Y409660D01*
X512099D01*
X508714D01*
Y404581D01*
X518870Y414738D02*
Y404581D01*
X525642D01*
X529027Y413045D02*
X530720Y414738D01*
X534105D01*
X535798Y413045D01*
Y411353D01*
X534105Y409660D01*
X535798Y407967D01*
Y406274D01*
X534105Y404581D01*
X530720D01*
X529027Y406274D01*
Y407967D01*
X530720Y409660D01*
X529027Y411353D01*
Y413045D01*
X530720Y409660D02*
X534105D01*
X624705Y588474D02*
X617934D01*
Y583396D01*
X621319D01*
X617934D01*
Y578317D01*
X628090Y588474D02*
Y578317D01*
X634861D01*
X638247Y588474D02*
X645018D01*
Y586781D01*
X638247Y580010D01*
Y578317D01*
X602283Y660837D02*
X595512D01*
Y655758D01*
X598898D01*
X595512D01*
Y650680D01*
X605669Y660837D02*
Y650680D01*
X612440D01*
X622597Y660837D02*
X619211Y659144D01*
X615825Y655758D01*
Y652373D01*
X617518Y650680D01*
X620904D01*
X622597Y652373D01*
Y654066D01*
X620904Y655758D01*
X615825D01*
X598797Y622764D02*
X592026D01*
Y617686D01*
X595411D01*
X592026D01*
Y612607D01*
X602182Y622764D02*
Y612607D01*
X608954D01*
X619110Y622764D02*
X612339D01*
Y617686D01*
X615725Y619379D01*
X617417D01*
X619110Y617686D01*
Y614300D01*
X617417Y612607D01*
X614032D01*
X612339Y614300D01*
X424483Y606227D02*
X417712D01*
Y601148D01*
X421098D01*
X417712D01*
Y596070D01*
X427869Y606227D02*
Y596070D01*
X434640D01*
X443104D02*
Y606227D01*
X438025Y601148D01*
X444797D01*
X556125Y413722D02*
X549354D01*
Y408644D01*
X552739D01*
X549354D01*
Y403565D01*
X559510Y413722D02*
Y403565D01*
X566282D01*
X569667Y412029D02*
X571360Y413722D01*
X574745D01*
X576438Y412029D01*
Y410337D01*
X574745Y408644D01*
X573053D01*
X574745D01*
X576438Y406951D01*
Y405258D01*
X574745Y403565D01*
X571360D01*
X569667Y405258D01*
X659503Y494494D02*
X652732D01*
Y489416D01*
X656117D01*
X652732D01*
Y484338D01*
X662888Y494494D02*
Y484338D01*
X669660D01*
X679816D02*
X673045D01*
X679816Y491109D01*
Y492801D01*
X678123Y494494D01*
X674738D01*
X673045Y492801D01*
X669409Y612858D02*
X662638D01*
Y607780D01*
X666023D01*
X662638D01*
Y602701D01*
X672794Y612858D02*
Y602701D01*
X679566D01*
X682951D02*
X686337D01*
X684644D01*
Y612858D01*
X682951Y611165D01*
X477136Y432689D02*
X475443Y430996D01*
Y427610D01*
X477136Y425918D01*
X483907D01*
X485600Y427610D01*
Y430996D01*
X483907Y432689D01*
X485600Y436074D02*
Y439460D01*
Y437767D01*
X475443D01*
X477136Y436074D01*
Y444538D02*
X475443Y446231D01*
Y449617D01*
X477136Y451309D01*
X483907D01*
X485600Y449617D01*
Y446231D01*
X483907Y444538D01*
X477136D01*
X439728Y543151D02*
X438035Y541458D01*
Y538073D01*
X439728Y536380D01*
X446499D01*
X448192Y538073D01*
Y541458D01*
X446499Y543151D01*
Y546537D02*
X448192Y548229D01*
Y551615D01*
X446499Y553308D01*
X439728D01*
X438035Y551615D01*
Y548229D01*
X439728Y546537D01*
X441421D01*
X443114Y548229D01*
Y553308D01*
X542663Y476799D02*
X540970Y478492D01*
X537584D01*
X535892Y476799D01*
Y470028D01*
X537584Y468335D01*
X540970D01*
X542663Y470028D01*
X546048Y476799D02*
X547741Y478492D01*
X551127D01*
X552820Y476799D01*
Y475107D01*
X551127Y473414D01*
X552820Y471721D01*
Y470028D01*
X551127Y468335D01*
X547741D01*
X546048Y470028D01*
Y471721D01*
X547741Y473414D01*
X546048Y475107D01*
Y476799D01*
X547741Y473414D02*
X551127D01*
X607438Y434721D02*
X605745Y433028D01*
Y429642D01*
X607438Y427949D01*
X614209D01*
X615902Y429642D01*
Y433028D01*
X614209Y434721D01*
X605745Y438106D02*
Y444877D01*
X607438D01*
X614209Y438106D01*
X615902D01*
X589399Y494071D02*
X587706Y495764D01*
X584320D01*
X582628Y494071D01*
Y487300D01*
X584320Y485607D01*
X587706D01*
X589399Y487300D01*
X599556Y495764D02*
X596170Y494071D01*
X592784Y490686D01*
Y487300D01*
X594477Y485607D01*
X597863D01*
X599556Y487300D01*
Y488993D01*
X597863Y490686D01*
X592784D01*
X611502Y530225D02*
X609809Y528532D01*
Y525146D01*
X611502Y523453D01*
X618273D01*
X619966Y525146D01*
Y528532D01*
X618273Y530225D01*
X609809Y540381D02*
Y533610D01*
X614887D01*
X613195Y536996D01*
Y538689D01*
X614887Y540381D01*
X618273D01*
X619966Y538689D01*
Y535303D01*
X618273Y533610D01*
X757223Y581674D02*
X755530Y583367D01*
X752145D01*
X750452Y581674D01*
Y574903D01*
X752145Y573210D01*
X755530D01*
X757223Y574903D01*
X765687Y573210D02*
Y583367D01*
X760609Y578288D01*
X767380D01*
X612264Y556641D02*
X610571Y554948D01*
Y551562D01*
X612264Y549869D01*
X619035D01*
X620728Y551562D01*
Y554948D01*
X619035Y556641D01*
X612264Y560026D02*
X610571Y561719D01*
Y565105D01*
X612264Y566797D01*
X613957D01*
X615649Y565105D01*
Y563412D01*
Y565105D01*
X617342Y566797D01*
X619035D01*
X620728Y565105D01*
Y561719D01*
X619035Y560026D01*
X484178Y633321D02*
X482485Y631628D01*
Y628243D01*
X484178Y626550D01*
X490949D01*
X492642Y628243D01*
Y631628D01*
X490949Y633321D01*
X492642Y643478D02*
Y636707D01*
X485871Y643478D01*
X484178D01*
X482485Y641785D01*
Y638400D01*
X484178Y636707D01*
X647570Y546989D02*
X645877Y545296D01*
Y541910D01*
X647570Y540218D01*
X654341D01*
X656034Y541910D01*
Y545296D01*
X654341Y546989D01*
X656034Y550374D02*
Y553760D01*
Y552067D01*
X645877D01*
X647570Y550374D01*
X967351Y673141D02*
X965658Y674834D01*
X962272D01*
X960580Y673141D01*
Y666370D01*
X962272Y664678D01*
X965658D01*
X967351Y666370D01*
X970736Y664678D02*
X974122D01*
X972429D01*
Y674834D01*
X970736Y673141D01*
X979200D02*
X980893Y674834D01*
X984279D01*
X985972Y673141D01*
Y671449D01*
X984279Y669756D01*
X982586D01*
X984279D01*
X985972Y668063D01*
Y666370D01*
X984279Y664678D01*
X980893D01*
X979200Y666370D01*
X958212Y716915D02*
X956519Y715222D01*
Y711836D01*
X958212Y710144D01*
X964983D01*
X966676Y711836D01*
Y715222D01*
X964983Y716915D01*
X966676Y727071D02*
Y720300D01*
X959905Y727071D01*
X958212D01*
X956519Y725379D01*
Y721993D01*
X958212Y720300D01*
X966676Y737228D02*
Y730457D01*
X959905Y737228D01*
X958212D01*
X956519Y735535D01*
Y732150D01*
X958212Y730457D01*
X291711Y357080D02*
X288325D01*
X290018D01*
Y348616D01*
X288325Y346924D01*
X286632D01*
X284940Y348616D01*
X295096Y346924D02*
X298482D01*
X296789D01*
Y357080D01*
X295096Y355387D01*
X319651Y797008D02*
X316265D01*
X317958D01*
Y788544D01*
X316265Y786852D01*
X314573D01*
X312880Y788544D01*
X329808Y786852D02*
X323036D01*
X329808Y793623D01*
Y795315D01*
X328115Y797008D01*
X324729D01*
X323036Y795315D01*
X513797Y696428D02*
X523954D01*
Y703199D01*
Y706584D02*
Y709970D01*
Y708277D01*
X513797D01*
X515490Y706584D01*
X610060Y714462D02*
X599903D01*
Y719540D01*
X601596Y721233D01*
X604981D01*
X606674Y719540D01*
Y714462D01*
Y717847D02*
X610060Y721233D01*
Y724618D02*
Y728004D01*
Y726311D01*
X599903D01*
X601596Y724618D01*
X599903Y739853D02*
X601596Y736468D01*
X604981Y733082D01*
X608367D01*
X610060Y734775D01*
Y738160D01*
X608367Y739853D01*
X606674D01*
X604981Y738160D01*
Y733082D01*
X1050978Y393889D02*
X1049285Y392196D01*
Y388810D01*
X1050978Y387118D01*
X1052671D01*
X1054363Y388810D01*
Y392196D01*
X1056056Y393889D01*
X1057749D01*
X1059442Y392196D01*
Y388810D01*
X1057749Y387118D01*
X1059442Y397274D02*
Y400660D01*
Y398967D01*
X1049285D01*
X1050978Y397274D01*
X664334Y687451D02*
X662641Y685758D01*
Y682372D01*
X664334Y680679D01*
X671105D01*
X672798Y682372D01*
Y685758D01*
X671105Y687451D01*
X672798Y690836D02*
Y694222D01*
Y692529D01*
X662641D01*
X664334Y690836D01*
Y699300D02*
X662641Y700993D01*
Y704379D01*
X664334Y706071D01*
X666027D01*
X667719Y704379D01*
X669412Y706071D01*
X671105D01*
X672798Y704379D01*
Y700993D01*
X671105Y699300D01*
X669412D01*
X667719Y700993D01*
X666027Y699300D01*
X664334D01*
X667719Y700993D02*
Y704379D01*
X663400Y800818D02*
Y790661D01*
X668478D01*
X670171Y792354D01*
Y799125D01*
X668478Y800818D01*
X663400D01*
X680328Y790661D02*
X673556D01*
X680328Y797433D01*
Y799125D01*
X678635Y800818D01*
X675249D01*
X673556Y799125D01*
D75*
X1046088Y663505D02*
G03*
X1046088Y663505I-1000J0D01*
G01*
D76*
X1032192Y404618D02*
G03*
X1032192Y404618I-1250J0D01*
G01*
X432160Y746712D02*
G03*
X432160Y746712I-1250J0D01*
G01*
D77*
X257000Y324571D02*
X257000D01*
X257000D02*
Y823174D01*
X1079000D01*
Y324571D02*
Y823174D01*
X257000Y324571D02*
X1079000D01*
X1041011Y434635D02*
X1039318Y436328D01*
X1035932D01*
X1034240Y434635D01*
Y432943D01*
X1035932Y431250D01*
X1039318D01*
X1041011Y429557D01*
Y427864D01*
X1039318Y426171D01*
X1035932D01*
X1034240Y427864D01*
X1044396Y436328D02*
Y426171D01*
Y429557D01*
X1051168Y436328D01*
X1046089Y431250D01*
X1051168Y426171D01*
X1061324D02*
X1054553D01*
X1061324Y432943D01*
Y434635D01*
X1059632Y436328D01*
X1056246D01*
X1054553Y434635D01*
X1005451Y800395D02*
X1003758Y802088D01*
X1000372D01*
X998680Y800395D01*
Y798703D01*
X1000372Y797010D01*
X1003758D01*
X1005451Y795317D01*
Y793624D01*
X1003758Y791932D01*
X1000372D01*
X998680Y793624D01*
X1008836Y802088D02*
Y791932D01*
Y795317D01*
X1015608Y802088D01*
X1010529Y797010D01*
X1015608Y791932D01*
X1018993D02*
X1022379D01*
X1020686D01*
Y802088D01*
X1018993Y800395D01*
X1062183Y631657D02*
X1070647D01*
X1072340Y633350D01*
Y636736D01*
X1070647Y638429D01*
X1062183D01*
X1072340Y648585D02*
Y641814D01*
X1065569Y648585D01*
X1063876D01*
X1062183Y646893D01*
Y643507D01*
X1063876Y641814D01*
X912320Y746211D02*
X902163D01*
Y751290D01*
X903856Y752983D01*
X907241D01*
X908934Y751290D01*
Y746211D01*
Y749597D02*
X912320Y752983D01*
Y763139D02*
Y756368D01*
X905549Y763139D01*
X903856D01*
X902163Y761447D01*
Y758061D01*
X903856Y756368D01*
X912320Y766525D02*
Y769911D01*
Y768218D01*
X902163D01*
X903856Y766525D01*
X639270Y739862D02*
X629113D01*
Y744940D01*
X630806Y746633D01*
X634191D01*
X635884Y744940D01*
Y739862D01*
Y743247D02*
X639270Y746633D01*
Y750018D02*
Y753404D01*
Y751711D01*
X629113D01*
X630806Y750018D01*
X637577Y758482D02*
X639270Y760175D01*
Y763560D01*
X637577Y765253D01*
X630806D01*
X629113Y763560D01*
Y760175D01*
X630806Y758482D01*
X632499D01*
X634191Y760175D01*
Y765253D01*
X808180Y697952D02*
X798023D01*
Y703030D01*
X799716Y704723D01*
X803101D01*
X804794Y703030D01*
Y697952D01*
Y701337D02*
X808180Y704723D01*
Y708108D02*
Y711494D01*
Y709801D01*
X798023D01*
X799716Y708108D01*
Y716572D02*
X798023Y718265D01*
Y721650D01*
X799716Y723343D01*
X801409D01*
X803101Y721650D01*
Y719958D01*
Y721650D01*
X804794Y723343D01*
X806487D01*
X808180Y721650D01*
Y718265D01*
X806487Y716572D01*
X836200Y506889D02*
X826043D01*
Y511968D01*
X827736Y513661D01*
X831121D01*
X832814Y511968D01*
Y506889D01*
Y510275D02*
X836200Y513661D01*
Y517046D02*
Y520432D01*
Y518739D01*
X826043D01*
X827736Y517046D01*
X836200Y532281D02*
Y525510D01*
X829429Y532281D01*
X827736D01*
X826043Y530588D01*
Y527203D01*
X827736Y525510D01*
X833580Y599033D02*
X823423D01*
Y604111D01*
X825116Y605804D01*
X828501D01*
X830194Y604111D01*
Y599033D01*
Y602418D02*
X833580Y605804D01*
Y609190D02*
Y612575D01*
Y610882D01*
X823423D01*
X825116Y609190D01*
X833580Y617654D02*
Y621039D01*
Y619346D01*
X823423D01*
X825116Y617654D01*
X835104Y737318D02*
Y727161D01*
X841875D01*
X852031Y737318D02*
X845260D01*
Y727161D01*
X852031D01*
X845260Y732240D02*
X848646D01*
X855417Y737318D02*
Y727161D01*
X860496D01*
X862188Y728854D01*
Y735625D01*
X860496Y737318D01*
X855417D01*
X865574Y735625D02*
X867267Y737318D01*
X870652D01*
X872345Y735625D01*
Y733933D01*
X870652Y732240D01*
X868959D01*
X870652D01*
X872345Y730547D01*
Y728854D01*
X870652Y727161D01*
X867267D01*
X865574Y728854D01*
X922483Y370291D02*
X932640D01*
Y377063D01*
X922483Y387219D02*
Y380448D01*
X932640D01*
Y387219D01*
X927561Y380448D02*
Y383834D01*
X922483Y390605D02*
X932640D01*
Y395683D01*
X930947Y397376D01*
X924176D01*
X922483Y395683D01*
Y390605D01*
X932640Y407533D02*
Y400762D01*
X925869Y407533D01*
X924176D01*
X922483Y405840D01*
Y402454D01*
X924176Y400762D01*
X831043Y375372D02*
X841200D01*
Y382143D01*
X831043Y392299D02*
Y385528D01*
X841200D01*
Y392299D01*
X836121Y385528D02*
Y388914D01*
X831043Y395685D02*
X841200D01*
Y400763D01*
X839507Y402456D01*
X832736D01*
X831043Y400763D01*
Y395685D01*
X841200Y405842D02*
Y409227D01*
Y407534D01*
X831043D01*
X832736Y405842D01*
X389080Y776688D02*
Y766532D01*
X394158D01*
X395851Y768224D01*
Y774995D01*
X394158Y776688D01*
X389080D01*
X399236Y766532D02*
X402622D01*
X400929D01*
Y776688D01*
X399236Y774995D01*
X1043297Y729783D02*
X1041604Y731476D01*
X1038219D01*
X1036526Y729783D01*
Y723012D01*
X1038219Y721320D01*
X1041604D01*
X1043297Y723012D01*
X1046682Y721320D02*
X1050068D01*
X1048375D01*
Y731476D01*
X1046682Y729783D01*
X1061917Y721320D02*
X1055146D01*
X1061917Y728091D01*
Y729783D01*
X1060225Y731476D01*
X1056839D01*
X1055146Y729783D01*
X516080Y771608D02*
Y763144D01*
X517772Y761451D01*
X521158D01*
X522851Y763144D01*
Y771608D01*
X531315Y761451D02*
Y771608D01*
X526236Y766530D01*
X533008D01*
X714200Y746208D02*
Y737744D01*
X715892Y736051D01*
X719278D01*
X720971Y737744D01*
Y746208D01*
X724356Y744515D02*
X726049Y746208D01*
X729435D01*
X731127Y744515D01*
Y742823D01*
X729435Y741130D01*
X727742D01*
X729435D01*
X731127Y739437D01*
Y737744D01*
X729435Y736051D01*
X726049D01*
X724356Y737744D01*
X912828Y711667D02*
X902671D01*
Y716746D01*
X904364Y718439D01*
X907749D01*
X909442Y716746D01*
Y711667D01*
Y715053D02*
X912828Y718439D01*
Y728595D02*
Y721824D01*
X906057Y728595D01*
X904364D01*
X902671Y726903D01*
Y723517D01*
X904364Y721824D01*
X912828Y738752D02*
Y731981D01*
X906057Y738752D01*
X904364D01*
X902671Y737059D01*
Y733674D01*
X904364Y731981D01*
X389080Y700491D02*
Y710648D01*
X394158D01*
X395851Y708955D01*
Y705570D01*
X394158Y703877D01*
X389080D01*
X392465D02*
X395851Y700491D01*
X399236D02*
X402622D01*
X400929D01*
Y710648D01*
X399236Y708955D01*
X412779Y700491D02*
Y710648D01*
X407700Y705570D01*
X414472D01*
X871426Y662392D02*
X861269D01*
Y667470D01*
X862962Y669163D01*
X866347D01*
X868040Y667470D01*
Y662392D01*
Y665777D02*
X871426Y669163D01*
Y672548D02*
Y675934D01*
Y674241D01*
X861269D01*
X862962Y672548D01*
Y681012D02*
X861269Y682705D01*
Y686090D01*
X862962Y687783D01*
X869733D01*
X871426Y686090D01*
Y682705D01*
X869733Y681012D01*
X862962D01*
X911304Y669249D02*
X901147D01*
Y674328D01*
X902840Y676021D01*
X906225D01*
X907918Y674328D01*
Y669249D01*
Y672635D02*
X911304Y676021D01*
X909611Y679406D02*
X911304Y681099D01*
Y684485D01*
X909611Y686177D01*
X902840D01*
X901147Y684485D01*
Y681099D01*
X902840Y679406D01*
X904533D01*
X906225Y681099D01*
Y686177D01*
X1013920Y692617D02*
Y702774D01*
X1018998D01*
X1020691Y701081D01*
Y697696D01*
X1018998Y696003D01*
X1013920D01*
X1017305D02*
X1020691Y692617D01*
X1024076Y701081D02*
X1025769Y702774D01*
X1029155D01*
X1030847Y701081D01*
Y699389D01*
X1029155Y697696D01*
X1030847Y696003D01*
Y694310D01*
X1029155Y692617D01*
X1025769D01*
X1024076Y694310D01*
Y696003D01*
X1025769Y697696D01*
X1024076Y699389D01*
Y701081D01*
X1025769Y697696D02*
X1029155D01*
X968200Y405852D02*
X958043D01*
Y410930D01*
X959736Y412623D01*
X963121D01*
X964814Y410930D01*
Y405852D01*
Y409237D02*
X968200Y412623D01*
X958043Y416008D02*
Y422779D01*
X959736D01*
X966507Y416008D01*
X968200D01*
X841200Y421091D02*
X831043D01*
Y426170D01*
X832736Y427863D01*
X836121D01*
X837814Y426170D01*
Y421091D01*
Y424477D02*
X841200Y427863D01*
X831043Y438019D02*
X832736Y434634D01*
X836121Y431248D01*
X839507D01*
X841200Y432941D01*
Y436327D01*
X839507Y438019D01*
X837814D01*
X836121Y436327D01*
Y431248D01*
X486870Y711410D02*
Y701254D01*
X491948D01*
X493641Y702946D01*
Y709717D01*
X491948Y711410D01*
X486870D01*
X497026Y709717D02*
X498719Y711410D01*
X502105D01*
X503797Y709717D01*
Y708025D01*
X502105Y706332D01*
X500412D01*
X502105D01*
X503797Y704639D01*
Y702946D01*
X502105Y701254D01*
X498719D01*
X497026Y702946D01*
X630806Y786003D02*
X629113Y784310D01*
Y780924D01*
X630806Y779231D01*
X637577D01*
X639270Y780924D01*
Y784310D01*
X637577Y786003D01*
X639270Y796159D02*
Y789388D01*
X632499Y796159D01*
X630806D01*
X629113Y794467D01*
Y791081D01*
X630806Y789388D01*
Y799545D02*
X629113Y801238D01*
Y804623D01*
X630806Y806316D01*
X637577D01*
X639270Y804623D01*
Y801238D01*
X637577Y799545D01*
X630806D01*
X621911Y728005D02*
X620218Y729698D01*
X616833D01*
X615140Y728005D01*
Y721234D01*
X616833Y719541D01*
X620218D01*
X621911Y721234D01*
X625296Y719541D02*
X628682D01*
X626989D01*
Y729698D01*
X625296Y728005D01*
X633760Y721234D02*
X635453Y719541D01*
X638839D01*
X640531Y721234D01*
Y728005D01*
X638839Y729698D01*
X635453D01*
X633760Y728005D01*
Y726313D01*
X635453Y724620D01*
X640531D01*
X474596Y791337D02*
X472903Y789644D01*
Y786258D01*
X474596Y784566D01*
X481367D01*
X483060Y786258D01*
Y789644D01*
X481367Y791337D01*
X483060Y794722D02*
Y798108D01*
Y796415D01*
X472903D01*
X474596Y794722D01*
X472903Y803186D02*
Y809957D01*
X474596D01*
X481367Y803186D01*
X483060D01*
X572381Y753405D02*
X570688Y755098D01*
X567303D01*
X565610Y753405D01*
Y746634D01*
X567303Y744941D01*
X570688D01*
X572381Y746634D01*
X575766Y744941D02*
X579152D01*
X577459D01*
Y755098D01*
X575766Y753405D01*
X591002Y755098D02*
X587616Y753405D01*
X584230Y750020D01*
Y746634D01*
X585923Y744941D01*
X589309D01*
X591002Y746634D01*
Y748327D01*
X589309Y750020D01*
X584230D01*
X747641Y698795D02*
X745948Y700488D01*
X742562D01*
X740870Y698795D01*
Y692024D01*
X742562Y690331D01*
X745948D01*
X747641Y692024D01*
X751026Y690331D02*
X754412D01*
X752719D01*
Y700488D01*
X751026Y698795D01*
X766262Y700488D02*
X759490D01*
Y695410D01*
X762876Y697103D01*
X764569D01*
X766262Y695410D01*
Y692024D01*
X764569Y690331D01*
X761183D01*
X759490Y692024D01*
X837816Y760603D02*
X836123Y758910D01*
Y755524D01*
X837816Y753831D01*
X844587D01*
X846280Y755524D01*
Y758910D01*
X844587Y760603D01*
X846280Y763988D02*
Y767374D01*
Y765681D01*
X836123D01*
X837816Y763988D01*
X846280Y777531D02*
X836123D01*
X841201Y772452D01*
Y779223D01*
X1044567Y701589D02*
X1042874Y703282D01*
X1039489D01*
X1037796Y701589D01*
Y694818D01*
X1039489Y693126D01*
X1042874D01*
X1044567Y694818D01*
X1047952Y693126D02*
X1051338D01*
X1049645D01*
Y703282D01*
X1047952Y701589D01*
X1056416Y693126D02*
X1059802D01*
X1058109D01*
Y703282D01*
X1056416Y701589D01*
X888611Y409235D02*
X886918Y410928D01*
X883532D01*
X881840Y409235D01*
Y407543D01*
X883532Y405850D01*
X886918D01*
X888611Y404157D01*
Y402464D01*
X886918Y400771D01*
X883532D01*
X881840Y402464D01*
X891996Y410928D02*
Y400771D01*
Y404157D01*
X898767Y410928D01*
X893689Y405850D01*
X898767Y400771D01*
X902153Y409235D02*
X903846Y410928D01*
X907232D01*
X908924Y409235D01*
Y407543D01*
X907232Y405850D01*
X905539D01*
X907232D01*
X908924Y404157D01*
Y402464D01*
X907232Y400771D01*
X903846D01*
X902153Y402464D01*
D78*
X594392Y553390D02*
Y577790D01*
X606792D01*
Y553390D02*
Y577790D01*
X594392Y553390D02*
X606792D01*
X594392Y519100D02*
Y543500D01*
X606792D01*
Y519100D02*
Y543500D01*
X594392Y519100D02*
X606792D01*
X572703Y514841D02*
X598001D01*
Y502039D02*
Y514841D01*
X572703Y502039D02*
X598001D01*
X572703D02*
Y514841D01*
X600643Y423401D02*
Y448699D01*
X587841Y423401D02*
X600643D01*
X587841D02*
Y448699D01*
X600643D01*
X485383Y531290D02*
Y574490D01*
X454181Y531290D02*
X485383D01*
X454181D02*
Y574490D01*
X485383D01*
X502853Y423401D02*
Y448699D01*
X490051Y423401D02*
X502853D01*
X490051D02*
Y448699D01*
X502853D01*
X498842Y599110D02*
Y623510D01*
X486442Y599110D02*
X498842D01*
X486442D02*
Y623510D01*
X498842D01*
X628481Y536431D02*
Y561729D01*
X641283D01*
Y536431D02*
Y561729D01*
X628481Y536431D02*
X641283D01*
X521842Y515151D02*
X565042D01*
Y483949D02*
Y515151D01*
X521842Y483949D02*
X565042D01*
X521842D02*
Y515151D01*
D79*
X596401Y599689D02*
Y607691D01*
X612403Y599689D02*
Y607691D01*
X596401Y599689D02*
X612403D01*
X596401Y607691D02*
X612403D01*
X596401Y645790D02*
X612403D01*
X596401Y637789D02*
X612403D01*
Y645790D01*
X596401Y637789D02*
Y645790D01*
Y584450D02*
Y592450D01*
X612403Y584450D02*
Y592450D01*
X596401Y584450D02*
X612403D01*
X596401Y592450D02*
X612403D01*
X440191Y584450D02*
X456193D01*
X440191Y592450D02*
X456193D01*
X440191Y584450D02*
Y592450D01*
X456193Y584450D02*
Y592450D01*
D80*
X720742Y481080D02*
X721742D01*
X720742Y490080D02*
X721742D01*
X585162Y388560D02*
Y389560D01*
X593162Y388560D02*
Y389560D01*
X474940Y414931D02*
X475940D01*
X474940Y406931D02*
X475940D01*
X649622Y645290D02*
X650622D01*
X649622Y638290D02*
X650622D01*
X747308Y705256D02*
X758308D01*
X747308Y729256D02*
X758308D01*
X550124Y759355D02*
X551124D01*
X550124Y751356D02*
X551124D01*
X504230Y801201D02*
X515230D01*
X504230Y785201D02*
X515230D01*
X614760Y689911D02*
Y700911D01*
X630760Y689911D02*
Y700911D01*
X621680Y791432D02*
Y792431D01*
X613680Y791432D02*
Y792431D01*
X855860Y430751D02*
Y431752D01*
X846860Y430751D02*
Y431752D01*
X952380Y430751D02*
Y431752D01*
X943380Y430751D02*
Y431752D01*
X1019770Y687981D02*
X1020770D01*
X1019770Y679982D02*
X1020770D01*
X897016Y674846D02*
Y675845D01*
X889016Y674846D02*
Y675845D01*
X884570Y674592D02*
Y675592D01*
X876570Y674592D02*
Y675592D01*
X398740Y694332D02*
X399740D01*
X398740Y686331D02*
X399740D01*
X606440Y791432D02*
Y792431D01*
X598440Y791432D02*
Y792431D01*
X920504Y725646D02*
Y726646D01*
X927504Y725646D02*
Y726646D01*
X1048980Y707413D02*
X1049980D01*
X1048980Y715414D02*
X1049980D01*
X847486Y609059D02*
Y610060D01*
X839486Y609059D02*
Y610060D01*
X847740Y521429D02*
Y522430D01*
X839740Y521429D02*
Y522430D01*
X784630Y711422D02*
Y712421D01*
X793630Y711422D02*
Y712421D01*
X621680Y755872D02*
Y756871D01*
X613680Y755872D02*
Y756871D01*
X573040Y791432D02*
Y792431D01*
X581040Y791432D02*
Y792431D01*
X927750Y755872D02*
Y756871D01*
X919750Y755872D02*
Y756871D01*
X1003260Y673242D02*
X1004260D01*
X1003260Y664241D02*
X1004260D01*
X939054Y725646D02*
Y726646D01*
X947054Y725646D02*
Y726646D01*
X1048980Y688708D02*
X1049980D01*
X1048980Y676208D02*
X1049980D01*
X640160Y689911D02*
Y700911D01*
X656160Y689911D02*
Y700911D01*
X806340Y762301D02*
Y773301D01*
X830340Y762301D02*
Y773301D01*
X974442Y365117D02*
Y385117D01*
X989442Y400117D02*
X1009442D01*
X989442Y350117D02*
X1009442D01*
X1024442Y365117D02*
Y385117D01*
X1009442Y350117D02*
X1018442Y359118D01*
X980442D02*
X989442Y350117D01*
X980442Y391118D02*
X989442Y400117D01*
X1009442D02*
X1018442Y391118D01*
X384410Y733212D02*
X403910D01*
X384410Y759212D02*
X403910D01*
X471362Y595570D02*
Y596570D01*
X478362Y595570D02*
Y596570D01*
X719472Y605540D02*
X720472D01*
X719472Y614540D02*
X720472D01*
X598440Y755872D02*
Y756871D01*
X606440Y755872D02*
Y756871D01*
D81*
X938800Y375362D02*
X946800D01*
X829780Y728242D02*
Y736242D01*
X847360Y375362D02*
X855360D01*
D82*
X742743Y512580D02*
Y585580D01*
X699741Y512580D02*
X742743D01*
X699741D02*
Y585580D01*
X742743D01*
X730993D02*
X742743Y573830D01*
X680910Y778292D02*
X691660Y767542D01*
X655460Y778292D02*
X691660D01*
X655460Y724291D02*
Y778292D01*
Y724291D02*
X691660D01*
Y778292D01*
X529034Y688696D02*
Y738195D01*
X595582Y688696D02*
Y738195D01*
X529034Y688696D02*
X595582D01*
X529034Y738195D02*
X595582D01*
X527752Y621440D02*
X566752D01*
Y522440D02*
Y621440D01*
X527752Y522440D02*
X566752D01*
X527752D02*
Y621440D01*
Y608740D02*
X540452Y621440D01*
D83*
X1054088Y648505D02*
X1057088Y648505D01*
X1057088Y468506D01*
X1054088D02*
X1057088D01*
X865088Y648505D02*
X868088Y648505D01*
X865088Y648505D02*
X865088Y622505D01*
Y468506D02*
Y494506D01*
Y468506D02*
X868088D01*
D84*
X481252Y767227D02*
X483252D01*
X481252Y727227D02*
X483252D01*
X507252Y767227D02*
X509252D01*
X507252Y727227D02*
X509252D01*
Y767227D01*
X481252Y727227D02*
Y767227D01*
X490252Y743227D02*
X500252D01*
X491252Y751227D02*
X499252D01*
X495252Y743227D02*
X499252Y751227D01*
X491252D02*
X495252Y743227D01*
Y751227D02*
Y754228D01*
Y739228D02*
Y743227D01*
X538926Y772614D02*
X540926D01*
X538926D02*
Y802614D01*
X540926D01*
X566926D02*
X568926D01*
Y772614D02*
Y802614D01*
X566926Y772614D02*
X568926D01*
D85*
X556720Y805901D02*
Y813519D01*
X560528D01*
X561798Y812249D01*
Y809710D01*
X560528Y808441D01*
X556720D01*
X559259D02*
X561798Y805901D01*
X569416D02*
X564337D01*
X569416Y810980D01*
Y812249D01*
X568146Y813519D01*
X565607D01*
X564337Y812249D01*
X571955D02*
X573224Y813519D01*
X575764D01*
X577033Y812249D01*
Y807171D01*
X575764Y805901D01*
X573224D01*
X571955Y807171D01*
Y812249D01*
X594820Y807171D02*
Y814789D01*
X598629D01*
X599898Y813519D01*
Y810980D01*
X598629Y809711D01*
X594820D01*
X597359D02*
X599898Y807171D01*
X602437D02*
X604976D01*
X603707D01*
Y814789D01*
X602437Y813519D01*
X608785Y814789D02*
X613863D01*
Y813519D01*
X608785Y808441D01*
Y807171D01*
D86*
X495252Y716228D02*
D03*
D87*
X539197Y770344D02*
D03*
M02*
