G04*
G04 #@! TF.GenerationSoftware,Altium Limited,CircuitStudio,1.5.1 (1.5.1.13)*
G04*
G04 Layer_Physical_Order=4*
G04 Layer_Color=12500520*
%FSLAX44Y44*%
%MOMM*%
G71*
G01*
G75*
%ADD52C,0.5080*%
%ADD54C,0.6350*%
%ADD55C,1.2700*%
%ADD66C,1.6000*%
%ADD67R,1.7429X1.7429*%
%ADD68C,1.8001*%
%ADD69C,2.4001*%
%ADD70R,2.3238X2.3238*%
%ADD71C,0.8000*%
%ADD72C,1.2000*%
%ADD73R,4.0640X2.7940*%
%ADD74R,36.3220X1.2700*%
G36*
X1075408Y823174D02*
D01*
X1079000D01*
Y324572D01*
X1079000Y324571D01*
X1078944D01*
X257145Y324571D01*
Y324571D01*
X257000D01*
X257000Y821759D01*
X258414Y823174D01*
X260592D01*
X260592Y823174D01*
X1075408Y823174D01*
D02*
G37*
%LPC*%
G36*
X341000Y521285D02*
X337204Y520786D01*
X333667Y519320D01*
X330630Y516990D01*
X328299Y513952D01*
X326834Y510415D01*
X326334Y506620D01*
X326834Y502824D01*
X328299Y499287D01*
X330630Y496249D01*
X333667Y493919D01*
X337204Y492454D01*
X341000Y491954D01*
X344795Y492454D01*
X348333Y493919D01*
X351370Y496249D01*
X353701Y499287D01*
X354593Y501440D01*
X420647D01*
X421342Y500907D01*
X422932Y500248D01*
X424640Y500023D01*
X424731Y500035D01*
X428314Y496452D01*
X428428Y495584D01*
X429087Y493993D01*
X430135Y492627D01*
X431502Y491579D01*
X433092Y490920D01*
X434800Y490695D01*
X436507Y490920D01*
X438098Y491579D01*
X439464Y492627D01*
X440512Y493993D01*
X441171Y495584D01*
X441396Y497291D01*
X441171Y498999D01*
X440512Y500590D01*
X439464Y501956D01*
X438098Y503004D01*
X436507Y503663D01*
X435639Y503778D01*
X430956Y508460D01*
X430352Y509918D01*
X429304Y511284D01*
X427938Y512332D01*
X426347Y512991D01*
X424640Y513216D01*
X422932Y512991D01*
X421342Y512332D01*
X420647Y511799D01*
X354593D01*
X353701Y513952D01*
X351370Y516990D01*
X348333Y519320D01*
X344795Y520786D01*
X341000Y521285D01*
D02*
G37*
G36*
X1015190Y440612D02*
X1012438Y440250D01*
X1009874Y439188D01*
X1007673Y437499D01*
X1005983Y435297D01*
X1005119Y433212D01*
X1004921Y432733D01*
X1004559Y429981D01*
X1004921Y427230D01*
X1005983Y424666D01*
X1007673Y422464D01*
X1009874Y420775D01*
X1012438Y419713D01*
X1015190Y419351D01*
X1017941Y419713D01*
X1020505Y420775D01*
X1022707Y422464D01*
X1024396Y424666D01*
X1025458Y427230D01*
X1025821Y429981D01*
X1025458Y432733D01*
X1024396Y435297D01*
X1022707Y437499D01*
X1020505Y439188D01*
X1017941Y440250D01*
X1015190Y440612D01*
D02*
G37*
G36*
X944070Y630380D02*
X942362Y630155D01*
X940771Y629496D01*
X939405Y628448D01*
X938357Y627082D01*
X937698Y625491D01*
X937584Y624622D01*
X836768Y523807D01*
X502804D01*
X502104Y524718D01*
X500321Y526087D01*
X498243Y526948D01*
X496014Y527241D01*
X493784Y526948D01*
X491707Y526087D01*
X489923Y524718D01*
X488554Y522934D01*
X487693Y520857D01*
X487400Y518628D01*
X487693Y516398D01*
X488554Y514321D01*
X489923Y512537D01*
X491707Y511168D01*
X493784Y510307D01*
X496014Y510014D01*
X498243Y510307D01*
X500321Y511168D01*
X502104Y512537D01*
X502804Y513448D01*
X838914D01*
X840896Y513842D01*
X842576Y514965D01*
X944909Y617298D01*
X945777Y617412D01*
X947368Y618071D01*
X948734Y619119D01*
X949782Y620485D01*
X950441Y622076D01*
X950666Y623783D01*
X950441Y625491D01*
X949782Y627082D01*
X948734Y628448D01*
X947368Y629496D01*
X945777Y630155D01*
X944070Y630380D01*
D02*
G37*
G36*
X341000Y597485D02*
X337204Y596986D01*
X333667Y595520D01*
X330630Y593190D01*
X328299Y590152D01*
X326834Y586615D01*
X326334Y582820D01*
X326834Y579024D01*
X328299Y575487D01*
X330630Y572449D01*
X333667Y570119D01*
X337204Y568654D01*
X341000Y568154D01*
X344795Y568654D01*
X348333Y570119D01*
X351370Y572449D01*
X353701Y575487D01*
X354593Y577640D01*
X382178D01*
X397891Y561928D01*
X397891Y561927D01*
X398898Y561255D01*
X399571Y560805D01*
X401553Y560410D01*
X543099D01*
X543798Y559499D01*
X545582Y558130D01*
X547660Y557270D01*
X549889Y556976D01*
X552119Y557270D01*
X554196Y558130D01*
X555980Y559499D01*
X557349Y561283D01*
X558209Y563361D01*
X558503Y565590D01*
X558209Y567819D01*
X557349Y569897D01*
X555980Y571681D01*
X554196Y573050D01*
X552119Y573910D01*
X549889Y574204D01*
X547660Y573910D01*
X545582Y573050D01*
X543798Y571681D01*
X543099Y570770D01*
X403699D01*
X387986Y586482D01*
X386306Y587605D01*
X384324Y587999D01*
X354593D01*
X353701Y590152D01*
X351370Y593190D01*
X348333Y595520D01*
X344795Y596986D01*
X341000Y597485D01*
D02*
G37*
G36*
Y559385D02*
X337204Y558886D01*
X333667Y557420D01*
X330630Y555090D01*
X328299Y552052D01*
X326834Y548515D01*
X326334Y544720D01*
X326834Y540924D01*
X328299Y537387D01*
X330630Y534349D01*
X333667Y532019D01*
X337204Y530554D01*
X341000Y530054D01*
X344795Y530554D01*
X348333Y532019D01*
X351370Y534349D01*
X353701Y537387D01*
X355166Y540924D01*
X355665Y544720D01*
X355166Y548515D01*
X353701Y552052D01*
X351370Y555090D01*
X348333Y557420D01*
X344795Y558886D01*
X341000Y559385D01*
D02*
G37*
G36*
Y445085D02*
X337204Y444586D01*
X333667Y443120D01*
X330630Y440790D01*
X328299Y437752D01*
X326834Y434215D01*
X326334Y430420D01*
X326834Y426624D01*
X328299Y423087D01*
X330630Y420049D01*
X333667Y417719D01*
X337204Y416254D01*
X341000Y415754D01*
X344795Y416254D01*
X348333Y417719D01*
X351370Y420049D01*
X353701Y423087D01*
X355166Y426624D01*
X355665Y430420D01*
X355166Y434215D01*
X353701Y437752D01*
X351370Y440790D01*
X348333Y443120D01*
X344795Y444586D01*
X341000Y445085D01*
D02*
G37*
G36*
Y483185D02*
X337204Y482686D01*
X333667Y481220D01*
X330630Y478890D01*
X328299Y475852D01*
X326834Y472315D01*
X326334Y468520D01*
X326834Y464724D01*
X328299Y461187D01*
X330630Y458149D01*
X333667Y455819D01*
X337204Y454354D01*
X341000Y453854D01*
X344795Y454354D01*
X348333Y455819D01*
X351370Y458149D01*
X353701Y461187D01*
X354593Y463340D01*
X448726D01*
X534669Y377397D01*
X536349Y376275D01*
X538331Y375881D01*
X557396D01*
X558095Y374969D01*
X559879Y373600D01*
X561957Y372740D01*
X564186Y372446D01*
X566416Y372740D01*
X568493Y373600D01*
X570277Y374969D01*
X571646Y376753D01*
X572506Y378831D01*
X572800Y381060D01*
X572506Y383289D01*
X571646Y385367D01*
X570277Y387151D01*
X568493Y388520D01*
X566416Y389380D01*
X564186Y389674D01*
X561957Y389380D01*
X559879Y388520D01*
X558095Y387151D01*
X557396Y386240D01*
X540477D01*
X454534Y472182D01*
X452854Y473305D01*
X450872Y473699D01*
X354593D01*
X353701Y475852D01*
X351370Y478890D01*
X348333Y481220D01*
X344795Y482686D01*
X341000Y483185D01*
D02*
G37*
G36*
X897080Y440612D02*
X894328Y440250D01*
X891764Y439188D01*
X889563Y437499D01*
X887873Y435297D01*
X886811Y432733D01*
X886449Y429981D01*
X886811Y427230D01*
X887873Y424666D01*
X889563Y422464D01*
X891764Y420775D01*
X894328Y419713D01*
X897080Y419351D01*
X899831Y419713D01*
X902395Y420775D01*
X904597Y422464D01*
X906286Y424666D01*
X907348Y427230D01*
X907711Y429981D01*
X907348Y432733D01*
X907150Y433212D01*
X906286Y435297D01*
X904597Y437499D01*
X902395Y439188D01*
X899831Y440250D01*
X897080Y440612D01*
D02*
G37*
G36*
X989790D02*
X987038Y440250D01*
X984474Y439188D01*
X982272Y437499D01*
X980583Y435297D01*
X979521Y432733D01*
X979159Y429981D01*
X979521Y427230D01*
X980583Y424666D01*
X982272Y422464D01*
X984474Y420775D01*
X987038Y419713D01*
X989790Y419351D01*
X992541Y419713D01*
X995105Y420775D01*
X997307Y422464D01*
X998996Y424666D01*
X1000058Y427230D01*
X1000421Y429981D01*
X1000058Y432733D01*
X999860Y433212D01*
X998996Y435297D01*
X997307Y437499D01*
X995105Y439188D01*
X992541Y440250D01*
X989790Y440612D01*
D02*
G37*
G36*
X922480D02*
X919728Y440250D01*
X917164Y439188D01*
X914962Y437499D01*
X913273Y435297D01*
X912409Y433212D01*
X912211Y432733D01*
X911849Y429981D01*
X912211Y427230D01*
X913273Y424666D01*
X914962Y422464D01*
X917164Y420775D01*
X919728Y419713D01*
X922480Y419351D01*
X925231Y419713D01*
X927795Y420775D01*
X929997Y422464D01*
X931686Y424666D01*
X932748Y427230D01*
X933111Y429981D01*
X932748Y432733D01*
X931686Y435297D01*
X929997Y437499D01*
X927795Y439188D01*
X925231Y440250D01*
X922480Y440612D01*
D02*
G37*
G36*
X650700Y785828D02*
X648992Y785603D01*
X647402Y784944D01*
X646035Y783896D01*
X644987Y782530D01*
X644328Y780939D01*
X644103Y779231D01*
X644328Y777524D01*
X644873Y776209D01*
Y772094D01*
X644328Y770779D01*
X644103Y769072D01*
X644328Y767364D01*
X644873Y766049D01*
Y761934D01*
X644328Y760619D01*
X644103Y758912D01*
X644328Y757204D01*
X644873Y755889D01*
Y751774D01*
X644328Y750459D01*
X644103Y748752D01*
X644328Y747044D01*
X644873Y745729D01*
Y741614D01*
X644442Y740575D01*
X615266Y711398D01*
X458142D01*
X456827Y711943D01*
X455120Y712168D01*
X453412Y711943D01*
X452097Y711398D01*
X445442D01*
X444127Y711943D01*
X442420Y712168D01*
X440712Y711943D01*
X439122Y711284D01*
X437755Y710236D01*
X436707Y708870D01*
X436048Y707279D01*
X435823Y705572D01*
X436048Y703864D01*
X436707Y702273D01*
X437755Y700907D01*
X439122Y699859D01*
X440712Y699200D01*
X442420Y698975D01*
X444127Y699200D01*
X445442Y699744D01*
X452097D01*
X453412Y699200D01*
X455120Y698975D01*
X456827Y699200D01*
X458142Y699744D01*
X617680D01*
X619910Y700188D01*
X621800Y701451D01*
X652683Y732334D01*
X653998Y732879D01*
X655364Y733927D01*
X656412Y735293D01*
X657071Y736884D01*
X657296Y738592D01*
X657071Y740299D01*
X656527Y741614D01*
Y745729D01*
X657071Y747044D01*
X657296Y748752D01*
X657071Y750459D01*
X656527Y751774D01*
Y755889D01*
X657071Y757204D01*
X657296Y758912D01*
X657071Y760619D01*
X656527Y761934D01*
Y766049D01*
X657071Y767364D01*
X657296Y769072D01*
X657071Y770779D01*
X656527Y772094D01*
Y776209D01*
X657071Y777524D01*
X657296Y779231D01*
X657071Y780939D01*
X656412Y782530D01*
X655364Y783896D01*
X653998Y784944D01*
X652407Y785603D01*
X650700Y785828D01*
D02*
G37*
G36*
X341000Y730160D02*
X337987Y729763D01*
X335180Y728600D01*
X332769Y726750D01*
X330919Y724340D01*
X329756Y721532D01*
X329360Y718520D01*
X329756Y715507D01*
X330919Y712700D01*
X332769Y710289D01*
X335180Y708439D01*
X337987Y707276D01*
X341000Y706880D01*
X344012Y707276D01*
X346820Y708439D01*
X349230Y710289D01*
X351080Y712700D01*
X352243Y715507D01*
X352640Y718520D01*
X352243Y721532D01*
X351080Y724340D01*
X349230Y726750D01*
X346820Y728600D01*
X344012Y729763D01*
X341000Y730160D01*
D02*
G37*
G36*
X993600Y780972D02*
X990848Y780610D01*
X988284Y779548D01*
X986083Y777859D01*
X984393Y775657D01*
X983588Y773714D01*
X983331Y773093D01*
X982969Y770341D01*
X983331Y767590D01*
X984393Y765026D01*
X986083Y762824D01*
X987111Y762035D01*
X987225Y759761D01*
X983312Y755848D01*
X944705D01*
X927870Y772684D01*
X925980Y773947D01*
X923750Y774390D01*
X900610D01*
X899295Y774935D01*
X897588Y775160D01*
X895880Y774935D01*
X894289Y774276D01*
X893816Y773913D01*
D01*
X892923Y773228D01*
X891875Y771862D01*
X891216Y770271D01*
X890991Y768564D01*
X891216Y766856D01*
X891875Y765265D01*
X892923Y763899D01*
X894289Y762851D01*
X895880Y762192D01*
X897588Y761967D01*
X899295Y762192D01*
X900610Y762737D01*
X921336D01*
X938171Y745901D01*
X940062Y744638D01*
X942292Y744194D01*
X985726D01*
X987956Y744638D01*
X989846Y745901D01*
X997720Y753775D01*
X998983Y755666D01*
X999427Y757896D01*
Y761527D01*
X1001117Y762824D01*
X1002806Y765026D01*
X1003230Y766049D01*
X1003670Y767111D01*
X1003868Y767590D01*
X1004231Y770341D01*
X1003868Y773093D01*
X1002806Y775657D01*
X1001117Y777859D01*
X998915Y779548D01*
X996351Y780610D01*
X993600Y780972D01*
D02*
G37*
G36*
X551640Y817578D02*
X549932Y817353D01*
X548617Y816808D01*
X545772D01*
X544457Y817353D01*
X542750Y817578D01*
X541042Y817353D01*
X539451Y816694D01*
X538085Y815646D01*
X537037Y814280D01*
X536378Y812689D01*
X536153Y810982D01*
X536378Y809274D01*
X537037Y807683D01*
X538085Y806317D01*
X539451Y805269D01*
X541042Y804610D01*
X542750Y804385D01*
X544457Y804610D01*
X545772Y805154D01*
X548617D01*
X549932Y804610D01*
X551640Y804385D01*
X553347Y804610D01*
X554662Y805154D01*
X565736D01*
X582643Y788248D01*
Y778444D01*
X582098Y777129D01*
X581873Y775422D01*
X582098Y773714D01*
X582757Y772123D01*
X583805Y770757D01*
X585172Y769709D01*
X586762Y769050D01*
X588470Y768825D01*
X590177Y769050D01*
X591768Y769709D01*
X593134Y770757D01*
X594182Y772123D01*
X594841Y773714D01*
X595066Y775422D01*
X594841Y777129D01*
X594297Y778444D01*
Y790661D01*
X593853Y792891D01*
X592590Y794782D01*
X572270Y815102D01*
X570380Y816365D01*
X568150Y816808D01*
X554662D01*
X553347Y817353D01*
X551640Y817578D01*
D02*
G37*
G36*
X882348Y791416D02*
X880640Y791191D01*
X879050Y790532D01*
X877683Y789484D01*
X876635Y788118D01*
X875976Y786527D01*
X875751Y784819D01*
X875976Y783112D01*
X876635Y781521D01*
X877683Y780155D01*
X879050Y779107D01*
X880640Y778448D01*
X882348Y778223D01*
X884055Y778448D01*
X885370Y778992D01*
X951308D01*
X957847Y772454D01*
X957569Y770341D01*
X957931Y767590D01*
X958993Y765026D01*
X960683Y762824D01*
X962884Y761135D01*
X965448Y760073D01*
X968200Y759710D01*
X970951Y760073D01*
X973515Y761135D01*
X975717Y762824D01*
X977406Y765026D01*
X978468Y767590D01*
X978831Y770341D01*
X978468Y773093D01*
X977406Y775657D01*
X975717Y777859D01*
X973515Y779548D01*
X970951Y780610D01*
X968200Y780972D01*
X966087Y780694D01*
X957842Y788940D01*
X955952Y790203D01*
X953722Y790647D01*
X885370D01*
X884055Y791191D01*
X882348Y791416D01*
D02*
G37*
G36*
X1044400Y780972D02*
X1041648Y780610D01*
X1039084Y779548D01*
X1036882Y777859D01*
X1035193Y775657D01*
X1034388Y773714D01*
X1034131Y773093D01*
X1033769Y770341D01*
X1034131Y767590D01*
X1035193Y765026D01*
X1036882Y762824D01*
X1038573Y761527D01*
Y758785D01*
X996266Y716479D01*
X908510D01*
X906280Y716035D01*
X904389Y714772D01*
X891541Y701923D01*
X890226Y701378D01*
X888859Y700330D01*
X888575Y699960D01*
X886713Y700583D01*
X886520Y702266D01*
X904319Y720064D01*
X993854D01*
X996084Y720508D01*
X997974Y721771D01*
X1023120Y746917D01*
X1024383Y748808D01*
X1024827Y751038D01*
Y761527D01*
X1026517Y762824D01*
X1028206Y765026D01*
X1029268Y767590D01*
X1029631Y770341D01*
X1029268Y773093D01*
X1029011Y773714D01*
X1028206Y775657D01*
X1026517Y777859D01*
X1024315Y779548D01*
X1021751Y780610D01*
X1019000Y780972D01*
X1016248Y780610D01*
X1013684Y779548D01*
X1011482Y777859D01*
X1009793Y775657D01*
X1008988Y773714D01*
X1008731Y773093D01*
X1008369Y770341D01*
X1008731Y767590D01*
X1008929Y767111D01*
X1009793Y765026D01*
X1011482Y762824D01*
X1013173Y761527D01*
Y753451D01*
X991440Y731719D01*
X901906D01*
X899676Y731275D01*
X897785Y730012D01*
X876449Y708676D01*
X875186Y706785D01*
X874743Y704556D01*
Y698688D01*
X874198Y697373D01*
X873973Y695666D01*
X874071Y694921D01*
X872663Y692921D01*
X714784D01*
Y743418D01*
X714479Y745738D01*
X713583Y747901D01*
X712158Y749758D01*
X710301Y751183D01*
X708138Y752079D01*
X705818Y752384D01*
X703497Y752079D01*
X701334Y751183D01*
X699477Y749758D01*
X698052Y747901D01*
X697157Y745738D01*
X696851Y743418D01*
Y690998D01*
X681529Y675676D01*
X530050D01*
X527729Y675371D01*
X525566Y674475D01*
X523709Y673050D01*
X513792Y663133D01*
X512367Y661276D01*
X511471Y659113D01*
X511166Y656792D01*
Y646378D01*
X511471Y644057D01*
X512367Y641895D01*
X513792Y640038D01*
X515649Y638613D01*
X515902Y638508D01*
Y636343D01*
X515826Y636312D01*
X514042Y634943D01*
X513451Y634173D01*
X512673Y633159D01*
X511812Y631082D01*
X511519Y628852D01*
X511812Y626623D01*
X512673Y624545D01*
X514042Y622761D01*
X515826Y621393D01*
X517903Y620532D01*
X520132Y620238D01*
X522362Y620532D01*
X524439Y621393D01*
X526223Y622761D01*
X527592Y624545D01*
X528453Y626623D01*
X528746Y628852D01*
X528453Y631082D01*
X527592Y633159D01*
X526223Y634943D01*
X524439Y636312D01*
X524363Y636343D01*
Y638508D01*
X524616Y638613D01*
X526473Y640038D01*
X527898Y641895D01*
X528794Y644057D01*
X529099Y646378D01*
Y653078D01*
X533764Y657743D01*
X685244D01*
X687564Y658048D01*
X689727Y658944D01*
X691584Y660369D01*
X706257Y675042D01*
X899481D01*
X900088Y673042D01*
X899513Y672658D01*
X899513Y672658D01*
X896817Y669962D01*
X845658Y618803D01*
X694755D01*
X675220Y638338D01*
X675105Y639207D01*
X674446Y640798D01*
X673398Y642164D01*
X672032Y643212D01*
X670441Y643871D01*
X668734Y644096D01*
X667026Y643871D01*
X665435Y643212D01*
X664069Y642164D01*
X663021Y640798D01*
X662362Y639207D01*
X662137Y637500D01*
X662362Y635792D01*
X663021Y634201D01*
X664069Y632835D01*
X665435Y631787D01*
X667026Y631128D01*
X667895Y631013D01*
X688947Y609961D01*
X690628Y608838D01*
X692610Y608444D01*
X847804D01*
X849786Y608838D01*
X851466Y609961D01*
X905321Y663816D01*
X927277D01*
X927309Y663791D01*
X928900Y663132D01*
X930608Y662907D01*
X932315Y663132D01*
X933906Y663791D01*
X935272Y664839D01*
X936320Y666205D01*
X936979Y667796D01*
X937204Y669503D01*
X936979Y671211D01*
X936320Y672802D01*
X936136Y673042D01*
X937122Y675042D01*
X1021490D01*
Y649691D01*
X1021687Y648700D01*
X1022249Y647860D01*
X1023089Y647299D01*
X1024080Y647102D01*
X1064720D01*
X1065711Y647299D01*
X1066551Y647860D01*
X1067112Y648700D01*
X1067309Y649691D01*
Y677632D01*
Y690331D01*
Y718271D01*
X1067112Y719262D01*
X1066551Y720103D01*
X1065711Y720664D01*
X1064720Y720861D01*
X1024080D01*
X1023089Y720664D01*
X1022249Y720103D01*
X1021687Y719262D01*
X1021490Y718271D01*
Y716951D01*
D01*
Y692921D01*
X901849D01*
X901020Y694921D01*
X904787Y698688D01*
X910923Y704825D01*
X998680D01*
X1000910Y705268D01*
X1002800Y706531D01*
X1048520Y752251D01*
X1049783Y754142D01*
X1050227Y756372D01*
Y761527D01*
X1051917Y762824D01*
X1053606Y765026D01*
X1054668Y767590D01*
X1055031Y770341D01*
X1054668Y773093D01*
X1053606Y775657D01*
X1051917Y777859D01*
X1049715Y779548D01*
X1047151Y780610D01*
X1044400Y780972D01*
D02*
G37*
G36*
X353520Y615648D02*
X351812Y615423D01*
X350221Y614764D01*
X350189Y614739D01*
X341611D01*
X341578Y614764D01*
X339987Y615423D01*
X338280Y615648D01*
X336572Y615423D01*
X334981Y614764D01*
X334949Y614739D01*
X324056D01*
X322074Y614345D01*
X320393Y613222D01*
X296517Y589346D01*
X295394Y587666D01*
X295000Y585684D01*
Y433140D01*
X295394Y431157D01*
X296517Y429477D01*
X326841Y399154D01*
Y378160D01*
X355159D01*
Y406479D01*
X334165D01*
X305359Y435285D01*
Y583538D01*
X326201Y604380D01*
X333625D01*
X334981Y603339D01*
X336572Y602680D01*
X338280Y602455D01*
X339987Y602680D01*
X341578Y603339D01*
X342935Y604380D01*
X348865D01*
X350221Y603339D01*
X351812Y602680D01*
X353520Y602455D01*
X355227Y602680D01*
X356818Y603339D01*
X358175Y604380D01*
X387696D01*
X407515Y584561D01*
X409196Y583438D01*
X411178Y583044D01*
X541802D01*
X542501Y582133D01*
X544285Y580764D01*
X546362Y579903D01*
X548592Y579610D01*
X550821Y579903D01*
X552898Y580764D01*
X554683Y582133D01*
X556051Y583917D01*
X556912Y585994D01*
X557205Y588223D01*
X556912Y590453D01*
X556051Y592530D01*
X554683Y594314D01*
X552898Y595683D01*
X550821Y596544D01*
X548592Y596837D01*
X546362Y596544D01*
X544285Y595683D01*
X542501Y594314D01*
X541802Y593403D01*
X413323D01*
X393504Y613222D01*
X391824Y614345D01*
X389842Y614739D01*
X356851D01*
X356818Y614764D01*
X355227Y615423D01*
X353520Y615648D01*
D02*
G37*
G36*
X905462Y623268D02*
X903754Y623043D01*
X902163Y622384D01*
X901615Y621964D01*
D01*
X900797Y621336D01*
X899749Y619970D01*
X899090Y618379D01*
X898865Y616671D01*
X898869Y616642D01*
X852516Y570289D01*
X656147D01*
X642225Y584211D01*
X638620Y587816D01*
X639753Y589511D01*
X639848Y589472D01*
X641556Y589247D01*
X643263Y589472D01*
X644854Y590131D01*
X646220Y591179D01*
X647268Y592545D01*
X647927Y594136D01*
X648042Y595005D01*
X649493Y596456D01*
X650361Y596570D01*
X651952Y597229D01*
X653318Y598277D01*
X654367Y599644D01*
X655026Y601235D01*
X655140Y602103D01*
X656591Y603554D01*
X657459Y603668D01*
X659050Y604327D01*
X660417Y605376D01*
X661465Y606742D01*
X662124Y608333D01*
X662349Y610040D01*
X662124Y611747D01*
X661465Y613338D01*
X660417Y614704D01*
X659050Y615753D01*
X657459Y616412D01*
X655752Y616636D01*
X654045Y616412D01*
X652454Y615753D01*
X651088Y614704D01*
X650040Y613338D01*
X649380Y611747D01*
X649266Y610879D01*
X647815Y609428D01*
X646947Y609313D01*
X645356Y608654D01*
X643990Y607606D01*
X642941Y606240D01*
X642282Y604649D01*
X642168Y603781D01*
X640717Y602329D01*
X639848Y602215D01*
X638257Y601556D01*
X637353Y600862D01*
D01*
X636891Y600508D01*
X635843Y599142D01*
X635474Y598251D01*
X633610Y597816D01*
X633239Y597878D01*
X632660Y598632D01*
X630877Y600001D01*
X630726Y600063D01*
D01*
X628799Y600862D01*
X626570Y601155D01*
X624340Y600862D01*
X622263Y600001D01*
X620479Y598632D01*
X619110Y596848D01*
X618250Y594771D01*
X617956Y592542D01*
X618250Y590312D01*
X619110Y588235D01*
X620479Y586451D01*
X622263Y585082D01*
X624340Y584221D01*
X626570Y583928D01*
X627709Y584078D01*
X650339Y561447D01*
X652020Y560324D01*
X654002Y559930D01*
X654002Y559930D01*
X854662D01*
X856644Y560324D01*
X858324Y561447D01*
X907183Y610305D01*
X908760Y610959D01*
X910126Y612007D01*
X911174Y613373D01*
X911833Y614964D01*
X912058Y616671D01*
X911833Y618379D01*
X911174Y619970D01*
X910126Y621336D01*
X908760Y622384D01*
X907169Y623043D01*
X905462Y623268D01*
D02*
G37*
G36*
X352254Y653574D02*
X329745D01*
Y631065D01*
X352254D01*
Y653574D01*
D02*
G37*
G36*
X341000Y692060D02*
X337987Y691663D01*
X335180Y690500D01*
X332769Y688650D01*
X330919Y686240D01*
X329756Y683432D01*
X329360Y680420D01*
X329756Y677407D01*
X330919Y674600D01*
X332769Y672189D01*
X335180Y670339D01*
X337987Y669176D01*
X341000Y668780D01*
X344012Y669176D01*
X346820Y670339D01*
X349230Y672189D01*
X351080Y674600D01*
X352243Y677407D01*
X352640Y680420D01*
X352243Y683432D01*
X351080Y686240D01*
X349230Y688650D01*
X346820Y690500D01*
X344012Y691663D01*
X341000Y692060D01*
D02*
G37*
G36*
X918416Y640032D02*
X916708Y639807D01*
X915117Y639148D01*
X914423Y638615D01*
X893270D01*
X893270Y638615D01*
X891288Y638221D01*
X889607Y637098D01*
X848706Y596197D01*
X783220D01*
X782521Y597108D01*
X780736Y598477D01*
X778659Y599338D01*
X776430Y599631D01*
X774200Y599338D01*
X772123Y598477D01*
X770339Y597108D01*
X768970Y595324D01*
X768110Y593247D01*
X767816Y591017D01*
X768110Y588788D01*
X768970Y586711D01*
X770339Y584927D01*
X772123Y583558D01*
X774200Y582697D01*
X776430Y582404D01*
X778659Y582697D01*
X780736Y583558D01*
X782521Y584927D01*
X783220Y585838D01*
X850852D01*
X852834Y586232D01*
X854514Y587355D01*
X895415Y628256D01*
X914423D01*
X915117Y627723D01*
X916708Y627064D01*
X918416Y626839D01*
X920123Y627064D01*
X921714Y627723D01*
X923080Y628771D01*
X924128Y630137D01*
X924787Y631728D01*
X925012Y633436D01*
X924787Y635143D01*
X924128Y636734D01*
X923080Y638100D01*
X921714Y639148D01*
X920123Y639807D01*
X918416Y640032D01*
D02*
G37*
%LPD*%
D52*
X626570Y592542D02*
X654002Y565109D01*
X903176Y668996D02*
X930862D01*
X847804Y613624D02*
X903176Y668996D01*
X776430Y591017D02*
X850852D01*
X692610Y613624D02*
X847804D01*
X854662Y565109D02*
X905716Y616163D01*
X654002Y565109D02*
X854662D01*
X838914Y518628D02*
X943308Y623022D01*
X496014Y518628D02*
X838914D01*
X401553Y565590D02*
X549889D01*
X384324Y582820D02*
X401553Y565590D01*
X341000Y582820D02*
X384324D01*
X411178Y588223D02*
X548592D01*
X389842Y609560D02*
X411178Y588223D01*
X538331Y381060D02*
X564186D01*
X450872Y468520D02*
X538331Y381060D01*
X668734Y637500D02*
X692610Y613624D01*
X641556Y595844D02*
X648654Y602942D01*
X655752Y610040D01*
X300180Y433140D02*
Y585684D01*
Y433140D02*
X341000Y392320D01*
X300180Y585684D02*
X324056Y609560D01*
X341000Y506620D02*
X424640D01*
X341000Y468520D02*
X450872D01*
X324056Y609560D02*
X389842D01*
X424640Y506620D02*
X425472D01*
X434800Y497291D01*
X850852Y591017D02*
X893270Y633436D01*
X918416D01*
D54*
X588470Y775422D02*
Y790661D01*
X568150Y810982D02*
X588470Y790661D01*
X551640Y810982D02*
X568150D01*
X617680Y705572D02*
X650700Y738592D01*
Y769072D02*
Y779231D01*
Y758912D02*
Y769072D01*
Y748752D02*
Y758912D01*
Y738592D02*
Y748752D01*
X993600Y757896D02*
Y770341D01*
X985726Y750022D02*
X993600Y757896D01*
X942292Y750022D02*
X985726D01*
X923750Y768564D02*
X942292Y750022D01*
X953722Y784819D02*
X968200Y770341D01*
X1019000Y751038D02*
Y770341D01*
X880570Y695666D02*
Y704556D01*
X542750Y810982D02*
X551640D01*
X442420Y705572D02*
X455120D01*
X617680D01*
X1044400Y756372D02*
Y770341D01*
X882348Y784819D02*
X953722D01*
X897588Y768564D02*
X923750D01*
X880570Y704556D02*
X901906Y725891D01*
X993854D01*
X1019000Y751038D01*
X893524Y695666D02*
X908510Y710651D01*
X998680D01*
X1044400Y756372D01*
D55*
X685244Y666710D02*
X705818Y687283D01*
X530050Y666710D02*
X685244D01*
X520132Y656792D02*
X530050Y666710D01*
X520132Y646378D02*
Y656792D01*
X705818Y687283D02*
Y743418D01*
D66*
X989790Y429981D02*
D03*
X1015190D02*
D03*
X922480D02*
D03*
X897080D02*
D03*
X1044400Y770341D02*
D03*
X1019000D02*
D03*
X993600D02*
D03*
X968200D02*
D03*
D67*
X341000Y642320D02*
D03*
D68*
Y680420D02*
D03*
Y718520D02*
D03*
Y756620D02*
D03*
D69*
Y582820D02*
D03*
Y544720D02*
D03*
Y506620D02*
D03*
Y468520D02*
D03*
Y430420D02*
D03*
D70*
Y392320D02*
D03*
D71*
X267160Y365211D02*
D03*
Y355051D02*
D03*
Y344892D02*
D03*
X297640Y334731D02*
D03*
X287480D02*
D03*
X277320D02*
D03*
X267160D02*
D03*
X1039320D02*
D03*
X1049480D02*
D03*
X1069800Y365211D02*
D03*
Y355051D02*
D03*
X1059640Y334731D02*
D03*
X1069800Y344892D02*
D03*
Y334731D02*
D03*
Y781771D02*
D03*
X1039320Y812252D02*
D03*
X1049480D02*
D03*
X1069800Y791932D02*
D03*
X1059640Y812252D02*
D03*
X1069800Y802092D02*
D03*
Y812252D02*
D03*
X267160Y781771D02*
D03*
X297640Y812252D02*
D03*
X267160Y791932D02*
D03*
X287480Y812252D02*
D03*
X267160Y802092D02*
D03*
X277320Y812252D02*
D03*
X267160D02*
D03*
X566880Y789391D02*
D03*
X556720D02*
D03*
X546560D02*
D03*
X579580Y769072D02*
D03*
X627840Y763991D02*
D03*
X1054078Y661603D02*
D03*
X1041860D02*
D03*
X1028270Y670012D02*
D03*
X1041860Y700491D02*
D03*
X650700Y738592D02*
D03*
Y748752D02*
D03*
Y758912D02*
D03*
Y769072D02*
D03*
Y779231D02*
D03*
X918416Y633436D02*
D03*
X930608Y669503D02*
D03*
X905462Y616671D02*
D03*
X944070Y623783D02*
D03*
X893524Y695666D02*
D03*
X880570D02*
D03*
X542750Y810982D02*
D03*
X551640D02*
D03*
X588470Y775422D02*
D03*
X397000Y374571D02*
D03*
X417000D02*
D03*
X437000D02*
D03*
X527000D02*
D03*
X607000D02*
D03*
X627000D02*
D03*
X647000D02*
D03*
X667000D02*
D03*
X687000D02*
D03*
X707000D02*
D03*
X727000D02*
D03*
X747000D02*
D03*
X767000D02*
D03*
X787000D02*
D03*
X397000Y394571D02*
D03*
Y414571D02*
D03*
Y434571D02*
D03*
Y454571D02*
D03*
Y484571D02*
D03*
Y524571D02*
D03*
Y544571D02*
D03*
Y584571D02*
D03*
Y624571D02*
D03*
Y644572D02*
D03*
X417000D02*
D03*
X437000D02*
D03*
X457000D02*
D03*
X477000D02*
D03*
X497000D02*
D03*
X537000D02*
D03*
X557000D02*
D03*
X577000D02*
D03*
X677000D02*
D03*
X697000D02*
D03*
X717000D02*
D03*
X737000D02*
D03*
X757000D02*
D03*
X777000D02*
D03*
X787000Y394571D02*
D03*
Y414571D02*
D03*
Y434571D02*
D03*
Y454571D02*
D03*
Y474571D02*
D03*
Y494571D02*
D03*
Y534571D02*
D03*
Y554571D02*
D03*
Y574571D02*
D03*
Y604571D02*
D03*
X668734Y637500D02*
D03*
X655752Y610040D02*
D03*
X648654Y602942D02*
D03*
X641556Y595844D02*
D03*
X442420Y705572D02*
D03*
X455120D02*
D03*
X353520Y609052D02*
D03*
X338280D02*
D03*
X424640Y506620D02*
D03*
X434800Y497291D02*
D03*
X663400Y710651D02*
D03*
X673560D02*
D03*
X683720D02*
D03*
X882348Y784819D02*
D03*
X897588Y768564D02*
D03*
X705818Y723352D02*
D03*
Y743418D02*
D03*
Y713192D02*
D03*
Y733512D02*
D03*
Y703031D02*
D03*
X588470Y761451D02*
D03*
D72*
X548592Y588223D02*
D03*
X549889Y565590D02*
D03*
X564186Y381060D02*
D03*
X496014Y518628D02*
D03*
X626570Y592542D02*
D03*
X776430Y591017D02*
D03*
X520132Y628852D02*
D03*
Y646378D02*
D03*
D73*
X1044400Y663661D02*
D03*
Y704302D02*
D03*
D74*
X883110Y683981D02*
D03*
M02*
