G04*
G04 #@! TF.GenerationSoftware,Altium Limited,CircuitStudio,1.5.1 (1.5.1.13)*
G04*
G04 Layer_Color=13948096*
%FSLAX44Y44*%
%MOMM*%
G71*
G01*
G75*
%ADD56C,0.2540*%
%ADD77C,0.2032*%
%ADD134C,0.7620*%
D56*
X363847Y385281D02*
X357076D01*
Y395438D01*
X363847D01*
X357076Y390359D02*
X360461D01*
X367232Y385281D02*
X374003Y395438D01*
Y385281D02*
X367232Y395438D01*
X384160Y386974D02*
X382467Y385281D01*
X379082D01*
X377389Y386974D01*
Y393745D01*
X379082Y395438D01*
X382467D01*
X384160Y393745D01*
X387546Y390359D02*
X394317D01*
X390931Y386974D02*
Y393745D01*
X363847Y425328D02*
X362154Y423635D01*
X358769D01*
X357076Y425328D01*
Y427020D01*
X358769Y428713D01*
X362154D01*
X363847Y430406D01*
Y432099D01*
X362154Y433792D01*
X358769D01*
X357076Y432099D01*
X367232Y433792D02*
Y423635D01*
X374003Y433792D01*
Y423635D01*
X384160Y425328D02*
X382467Y423635D01*
X379082D01*
X377389Y425328D01*
Y427020D01*
X379082Y428713D01*
X382467D01*
X384160Y430406D01*
Y432099D01*
X382467Y433792D01*
X379082D01*
X377389Y432099D01*
X387546Y428713D02*
X394317D01*
X390931Y425328D02*
Y432099D01*
X363847Y464444D02*
X362154Y462751D01*
X358769D01*
X357076Y464444D01*
Y466137D01*
X358769Y467829D01*
X362154D01*
X363847Y469522D01*
Y471215D01*
X362154Y472908D01*
X358769D01*
X357076Y471215D01*
X367232Y462751D02*
X370618D01*
X368925D01*
Y472908D01*
X367232D01*
X370618D01*
X382467Y464444D02*
X380775Y462751D01*
X377389D01*
X375696Y464444D01*
Y471215D01*
X377389Y472908D01*
X380775D01*
X382467Y471215D01*
Y467829D01*
X379082D01*
X385853D02*
X392624D01*
X389239Y464444D02*
Y471215D01*
X363847Y503306D02*
X362154Y501613D01*
X358769D01*
X357076Y503306D01*
Y504999D01*
X358769Y506691D01*
X362154D01*
X363847Y508384D01*
Y510077D01*
X362154Y511770D01*
X358769D01*
X357076Y510077D01*
X367232Y501613D02*
X370618D01*
X368925D01*
Y511770D01*
X367232D01*
X370618D01*
X382467Y503306D02*
X380775Y501613D01*
X377389D01*
X375696Y503306D01*
Y510077D01*
X377389Y511770D01*
X380775D01*
X382467Y510077D01*
Y506691D01*
X379082D01*
X385853D02*
X392624D01*
X363847Y541152D02*
X362154Y539459D01*
X358769D01*
X357076Y541152D01*
Y542845D01*
X358769Y544537D01*
X362154D01*
X363847Y546230D01*
Y547923D01*
X362154Y549616D01*
X358769D01*
X357076Y547923D01*
X367232Y549616D02*
Y539459D01*
X374003Y549616D01*
Y539459D01*
X384160Y541152D02*
X382467Y539459D01*
X379082D01*
X377389Y541152D01*
Y542845D01*
X379082Y544537D01*
X382467D01*
X384160Y546230D01*
Y547923D01*
X382467Y549616D01*
X379082D01*
X377389Y547923D01*
X387546Y544537D02*
X394317D01*
X363847Y578067D02*
X357076D01*
Y588224D01*
X363847D01*
X357076Y583145D02*
X360461D01*
X367232Y578067D02*
X374003Y588224D01*
Y578067D02*
X367232Y588224D01*
X384160Y579760D02*
X382467Y578067D01*
X379082D01*
X377389Y579760D01*
Y586531D01*
X379082Y588224D01*
X382467D01*
X384160Y586531D01*
X387546Y583145D02*
X394317D01*
X392624Y640800D02*
X385853D01*
X389239Y644185D02*
Y637414D01*
X382467Y635722D02*
X379082D01*
X380775D01*
Y645878D01*
X382467Y644185D01*
X367232Y635722D02*
X374003D01*
X367232Y642493D01*
Y644185D01*
X368925Y645878D01*
X372311D01*
X374003Y644185D01*
X363847Y645878D02*
Y639107D01*
X360461Y635722D01*
X357076Y639107D01*
Y645878D01*
X377389Y759755D02*
X379082Y761448D01*
X382467D01*
X384160Y759755D01*
Y752984D01*
X382467Y751292D01*
X379082D01*
X377389Y752984D01*
Y756370D01*
X380775D01*
X374003Y751292D02*
Y761448D01*
X367232Y751292D01*
Y761448D01*
X363847D02*
Y751292D01*
X358769D01*
X357076Y752984D01*
Y759755D01*
X358769Y761448D01*
X363847D01*
D77*
X257000Y324571D02*
X257000D01*
D134*
X954230Y507443D02*
Y482052D01*
X945766Y490515D01*
X937302Y482052D01*
Y507443D01*
X924606Y482052D02*
X916142D01*
X911910Y486283D01*
Y494747D01*
X916142Y498979D01*
X924606D01*
X928838Y494747D01*
Y486283D01*
X924606Y482052D01*
X903446Y498979D02*
Y486283D01*
X899214Y482052D01*
X894982Y486283D01*
X890750Y482052D01*
X886518Y486283D01*
Y498979D01*
X861126Y503211D02*
X865358Y507443D01*
X873822D01*
X878054Y503211D01*
Y498979D01*
X873822Y494747D01*
X865358D01*
X861126Y490515D01*
Y486283D01*
X865358Y482052D01*
X873822D01*
X878054Y486283D01*
X835735Y498979D02*
X848430D01*
X852663Y494747D01*
Y486283D01*
X848430Y482052D01*
X835735D01*
X823039Y498979D02*
X814575D01*
X810343Y494747D01*
Y482052D01*
X823039D01*
X827271Y486283D01*
X823039Y490515D01*
X810343D01*
X801879Y482052D02*
X793415D01*
X797647D01*
Y507443D01*
X801879D01*
X768023Y482052D02*
X776487D01*
X780719Y486283D01*
Y494747D01*
X776487Y498979D01*
X768023D01*
X763791Y494747D01*
Y490515D01*
X780719D01*
X755327Y482052D02*
X742631D01*
X738399Y486283D01*
X742631Y490515D01*
X751095D01*
X755327Y494747D01*
X751095Y498979D01*
X738399D01*
X939842Y757211D02*
X944074Y761443D01*
X952538D01*
X956770Y757211D01*
Y752979D01*
X952538Y748747D01*
X944074D01*
X939842Y744515D01*
Y740284D01*
X944074Y736051D01*
X952538D01*
X956770Y740284D01*
X914450Y752979D02*
X927146D01*
X931378Y748747D01*
Y740284D01*
X927146Y736051D01*
X914450D01*
X901754Y752979D02*
X893290D01*
X889058Y748747D01*
Y736051D01*
X901754D01*
X905986Y740284D01*
X901754Y744515D01*
X889058D01*
X880594Y736051D02*
X872130D01*
X876362D01*
Y761443D01*
X880594D01*
X846739Y736051D02*
X855202D01*
X859435Y740284D01*
Y748747D01*
X855202Y752979D01*
X846739D01*
X842507Y748747D01*
Y744515D01*
X859435D01*
X808651Y761443D02*
Y736051D01*
X800187Y744515D01*
X791723Y736051D01*
Y761443D01*
X783259Y736051D02*
X774795D01*
X779027D01*
Y752979D01*
X783259D01*
X757867Y736051D02*
Y757211D01*
Y748747D01*
X762099D01*
X753635D01*
X757867D01*
Y757211D01*
X753635Y761443D01*
X740939Y736051D02*
X732476D01*
X736708D01*
Y752979D01*
X740939D01*
X694388Y736051D02*
Y761443D01*
X681692D01*
X677460Y757211D01*
Y748747D01*
X681692Y744515D01*
X694388D01*
X685924D02*
X677460Y736051D01*
X656300D02*
X664764D01*
X668996Y740284D01*
Y748747D01*
X664764Y752979D01*
X656300D01*
X652068Y748747D01*
Y744515D01*
X668996D01*
X643604Y736051D02*
Y752979D01*
X639372D01*
X635140Y748747D01*
Y736051D01*
Y748747D01*
X630908Y752979D01*
X626676Y748747D01*
Y736051D01*
X613980D02*
X605517D01*
X601285Y740284D01*
Y748747D01*
X605517Y752979D01*
X613980D01*
X618212Y748747D01*
Y740284D01*
X613980Y736051D01*
X588589Y757211D02*
Y752979D01*
X592821D01*
X584357D01*
X588589D01*
Y740284D01*
X584357Y736051D01*
X558965D02*
X567429D01*
X571661Y740284D01*
Y748747D01*
X567429Y752979D01*
X558965D01*
X554733Y748747D01*
Y744515D01*
X571661D01*
X520877Y761443D02*
Y744515D01*
X512413Y736051D01*
X503949Y744515D01*
Y761443D01*
X495485Y736051D02*
X487021D01*
X491253D01*
Y761443D01*
X495485Y757211D01*
X474326Y736051D02*
Y740284D01*
X470094D01*
Y736051D01*
X474326D01*
X453166Y757211D02*
X448934Y761443D01*
X440470D01*
X436238Y757211D01*
Y740284D01*
X440470Y736051D01*
X448934D01*
X453166Y740284D01*
Y757211D01*
M02*
