G04*
G04 #@! TF.GenerationSoftware,Altium Limited,CircuitStudio,1.5.1 (1.5.1.13)*
G04*
G04 Layer_Color=2752767*
%FSLAX44Y44*%
%MOMM*%
G71*
G01*
G75*
%ADD83C,0.1270*%
%ADD136C,0.1693*%
D83*
X984710Y424902D02*
Y435061D01*
X994870D01*
Y424902D01*
X984710D01*
X1010110D02*
Y435061D01*
X1020270D01*
Y424902D01*
X1010110D01*
X917400D02*
Y435061D01*
X927560D01*
Y424902D01*
X917400D01*
X892000D02*
Y435061D01*
X902160D01*
Y424902D01*
X892000D01*
X1039320Y765262D02*
Y775422D01*
X1049480D01*
Y765262D01*
X1039320D01*
X1013920D02*
Y775422D01*
X1024080D01*
Y765262D01*
X1013920D01*
X988520D02*
Y775422D01*
X998680D01*
Y765262D01*
X988520D01*
X963120D02*
Y775422D01*
X973280D01*
Y765262D01*
X963120D01*
X341000Y577740D02*
X335920Y587900D01*
X346080D01*
X341000Y577740D01*
Y539640D02*
X335920Y549800D01*
X346080D01*
X341000Y539640D01*
Y501540D02*
X335920Y511700D01*
X346080D01*
X341000Y501540D01*
Y463440D02*
X335920Y473600D01*
X346080D01*
X341000Y463440D01*
Y425340D02*
X335920Y435500D01*
X346080D01*
X341000Y425340D01*
Y387240D02*
X335920Y397400D01*
X346080D01*
X341000Y387240D01*
X267160Y360131D02*
X269700Y362672D01*
X272240D01*
X269700Y365211D01*
X272240Y367752D01*
X269700D01*
X267160Y370291D01*
X264620Y367752D01*
X262080D01*
X264620Y365211D01*
X262080Y362672D01*
X264620D01*
X267160Y360131D01*
Y349972D02*
X269700Y352511D01*
X272240D01*
X269700Y355051D01*
X272240Y357592D01*
X269700D01*
X267160Y360131D01*
X264620Y357592D01*
X262080D01*
X264620Y355051D01*
X262080Y352511D01*
X264620D01*
X267160Y349972D01*
Y339812D02*
X269700Y342351D01*
X272240D01*
X269700Y344892D01*
X272240Y347431D01*
X269700D01*
X267160Y349972D01*
X264620Y347431D01*
X262080D01*
X264620Y344892D01*
X262080Y342351D01*
X264620D01*
X267160Y339812D01*
X297640Y329651D02*
X300180Y332192D01*
X302720D01*
X300180Y334731D01*
X302720Y337271D01*
X300180D01*
X297640Y339812D01*
X295100Y337271D01*
X292560D01*
X295100Y334731D01*
X292560Y332192D01*
X295100D01*
X297640Y329651D01*
X287480D02*
X290020Y332192D01*
X292560D01*
X290020Y334731D01*
X292560Y337271D01*
X290020D01*
X287480Y339812D01*
X284940Y337271D01*
X282400D01*
X284940Y334731D01*
X282400Y332192D01*
X284940D01*
X287480Y329651D01*
X277320D02*
X279860Y332192D01*
X282400D01*
X279860Y334731D01*
X282400Y337271D01*
X279860D01*
X277320Y339812D01*
X274780Y337271D01*
X272240D01*
X274780Y334731D01*
X272240Y332192D01*
X274780D01*
X277320Y329651D01*
X267160D02*
X269700Y332192D01*
X272240D01*
X269700Y334731D01*
X272240Y337271D01*
X269700D01*
X267160Y339812D01*
X264620Y337271D01*
X262080D01*
X264620Y334731D01*
X262080Y332192D01*
X264620D01*
X267160Y329651D01*
X1039320D02*
X1041860Y332192D01*
X1044400D01*
X1041860Y334731D01*
X1044400Y337271D01*
X1041860D01*
X1039320Y339812D01*
X1036780Y337271D01*
X1034240D01*
X1036780Y334731D01*
X1034240Y332192D01*
X1036780D01*
X1039320Y329651D01*
X1049480D02*
X1052020Y332192D01*
X1054560D01*
X1052020Y334731D01*
X1054560Y337271D01*
X1052020D01*
X1049480Y339812D01*
X1046940Y337271D01*
X1044400D01*
X1046940Y334731D01*
X1044400Y332192D01*
X1046940D01*
X1049480Y329651D01*
X1069800Y360131D02*
X1072340Y362672D01*
X1074880D01*
X1072340Y365211D01*
X1074880Y367752D01*
X1072340D01*
X1069800Y370291D01*
X1067260Y367752D01*
X1064720D01*
X1067260Y365211D01*
X1064720Y362672D01*
X1067260D01*
X1069800Y360131D01*
Y349972D02*
X1072340Y352511D01*
X1074880D01*
X1072340Y355051D01*
X1074880Y357592D01*
X1072340D01*
X1069800Y360131D01*
X1067260Y357592D01*
X1064720D01*
X1067260Y355051D01*
X1064720Y352511D01*
X1067260D01*
X1069800Y349972D01*
X1059640Y329651D02*
X1062180Y332192D01*
X1064720D01*
X1062180Y334731D01*
X1064720Y337271D01*
X1062180D01*
X1059640Y339812D01*
X1057100Y337271D01*
X1054560D01*
X1057100Y334731D01*
X1054560Y332192D01*
X1057100D01*
X1059640Y329651D01*
X1069800Y339812D02*
X1072340Y342351D01*
X1074880D01*
X1072340Y344892D01*
X1074880Y347431D01*
X1072340D01*
X1069800Y349972D01*
X1067260Y347431D01*
X1064720D01*
X1067260Y344892D01*
X1064720Y342351D01*
X1067260D01*
X1069800Y339812D01*
Y329651D02*
X1072340Y332192D01*
X1074880D01*
X1072340Y334731D01*
X1074880Y337271D01*
X1072340D01*
X1069800Y339812D01*
X1067260Y337271D01*
X1064720D01*
X1067260Y334731D01*
X1064720Y332192D01*
X1067260D01*
X1069800Y329651D01*
Y776692D02*
X1072340Y779231D01*
X1074880D01*
X1072340Y781771D01*
X1074880Y784312D01*
X1072340D01*
X1069800Y786852D01*
X1067260Y784312D01*
X1064720D01*
X1067260Y781771D01*
X1064720Y779231D01*
X1067260D01*
X1069800Y776692D01*
X1039320Y807171D02*
X1041860Y809712D01*
X1044400D01*
X1041860Y812252D01*
X1044400Y814791D01*
X1041860D01*
X1039320Y817331D01*
X1036780Y814791D01*
X1034240D01*
X1036780Y812252D01*
X1034240Y809712D01*
X1036780D01*
X1039320Y807171D01*
X1049480D02*
X1052020Y809712D01*
X1054560D01*
X1052020Y812252D01*
X1054560Y814791D01*
X1052020D01*
X1049480Y817331D01*
X1046940Y814791D01*
X1044400D01*
X1046940Y812252D01*
X1044400Y809712D01*
X1046940D01*
X1049480Y807171D01*
X1069800Y786852D02*
X1072340Y789391D01*
X1074880D01*
X1072340Y791932D01*
X1074880Y794472D01*
X1072340D01*
X1069800Y797011D01*
X1067260Y794472D01*
X1064720D01*
X1067260Y791932D01*
X1064720Y789391D01*
X1067260D01*
X1069800Y786852D01*
X1059640Y807171D02*
X1062180Y809712D01*
X1064720D01*
X1062180Y812252D01*
X1064720Y814791D01*
X1062180D01*
X1059640Y817331D01*
X1057100Y814791D01*
X1054560D01*
X1057100Y812252D01*
X1054560Y809712D01*
X1057100D01*
X1059640Y807171D01*
X1069800Y797011D02*
X1072340Y799551D01*
X1074880D01*
X1072340Y802092D01*
X1074880Y804632D01*
X1072340D01*
X1069800Y807171D01*
X1067260Y804632D01*
X1064720D01*
X1067260Y802092D01*
X1064720Y799551D01*
X1067260D01*
X1069800Y797011D01*
Y807171D02*
X1072340Y809712D01*
X1074880D01*
X1072340Y812252D01*
X1074880Y814791D01*
X1072340D01*
X1069800Y817331D01*
X1067260Y814791D01*
X1064720D01*
X1067260Y812252D01*
X1064720Y809712D01*
X1067260D01*
X1069800Y807171D01*
X267160Y776692D02*
X269700Y779231D01*
X272240D01*
X269700Y781771D01*
X272240Y784312D01*
X269700D01*
X267160Y786852D01*
X264620Y784312D01*
X262080D01*
X264620Y781771D01*
X262080Y779231D01*
X264620D01*
X267160Y776692D01*
X297640Y807171D02*
X300180Y809712D01*
X302720D01*
X300180Y812252D01*
X302720Y814791D01*
X300180D01*
X297640Y817331D01*
X295100Y814791D01*
X292560D01*
X295100Y812252D01*
X292560Y809712D01*
X295100D01*
X297640Y807171D01*
X267160Y786852D02*
X269700Y789391D01*
X272240D01*
X269700Y791932D01*
X272240Y794472D01*
X269700D01*
X267160Y797011D01*
X264620Y794472D01*
X262080D01*
X264620Y791932D01*
X262080Y789391D01*
X264620D01*
X267160Y786852D01*
X287480Y807171D02*
X290020Y809712D01*
X292560D01*
X290020Y812252D01*
X292560Y814791D01*
X290020D01*
X287480Y817331D01*
X284940Y814791D01*
X282400D01*
X284940Y812252D01*
X282400Y809712D01*
X284940D01*
X287480Y807171D01*
X267160Y797011D02*
X269700Y799551D01*
X272240D01*
X269700Y802092D01*
X272240Y804632D01*
X269700D01*
X267160Y807171D01*
X264620Y804632D01*
X262080D01*
X264620Y802092D01*
X262080Y799551D01*
X264620D01*
X267160Y797011D01*
X277320Y807171D02*
X279860Y809712D01*
X282400D01*
X279860Y812252D01*
X282400Y814791D01*
X279860D01*
X277320Y817331D01*
X274780Y814791D01*
X272240D01*
X274780Y812252D01*
X272240Y809712D01*
X274780D01*
X277320Y807171D01*
X267160D02*
X269700Y809712D01*
X272240D01*
X269700Y812252D01*
X272240Y814791D01*
X269700D01*
X267160Y817331D01*
X264620Y814791D01*
X262080D01*
X264620Y812252D01*
X262080Y809712D01*
X264620D01*
X267160Y807171D01*
X566880Y784312D02*
X569420Y786852D01*
X571960D01*
X569420Y789391D01*
X571960Y791932D01*
X569420D01*
X566880Y794472D01*
X564340Y791932D01*
X561800D01*
X564340Y789391D01*
X561800Y786852D01*
X564340D01*
X566880Y784312D01*
X556720D02*
X559260Y786852D01*
X561800D01*
X559260Y789391D01*
X561800Y791932D01*
X559260D01*
X556720Y794472D01*
X554180Y791932D01*
X551640D01*
X554180Y789391D01*
X551640Y786852D01*
X554180D01*
X556720Y784312D01*
X546560D02*
X549100Y786852D01*
X551640D01*
X549100Y789391D01*
X551640Y791932D01*
X549100D01*
X546560Y794472D01*
X544020Y791932D01*
X541480D01*
X544020Y789391D01*
X541480Y786852D01*
X544020D01*
X546560Y784312D01*
X579580Y763991D02*
X582120Y766532D01*
X584660D01*
X582120Y769072D01*
X584660Y771611D01*
X582120D01*
X579580Y774152D01*
X577040Y771611D01*
X574500D01*
X577040Y769072D01*
X574500Y766532D01*
X577040D01*
X579580Y763991D01*
X627840Y758912D02*
X630380Y761451D01*
X632920D01*
X630380Y763991D01*
X632920Y766532D01*
X630380D01*
X627840Y769072D01*
X625300Y766532D01*
X622760D01*
X625300Y763991D01*
X622760Y761451D01*
X625300D01*
X627840Y758912D01*
X1054078Y656524D02*
X1056618Y659063D01*
X1059158D01*
X1056618Y661603D01*
X1059158Y664144D01*
X1056618D01*
X1054078Y666684D01*
X1051538Y664144D01*
X1048998D01*
X1051538Y661603D01*
X1048998Y659063D01*
X1051538D01*
X1054078Y656524D01*
X1041860D02*
X1044400Y659063D01*
X1046940D01*
X1044400Y661603D01*
X1046940Y664144D01*
X1044400D01*
X1041860Y666684D01*
X1039320Y664144D01*
X1036780D01*
X1039320Y661603D01*
X1036780Y659063D01*
X1039320D01*
X1041860Y656524D01*
X1028270Y664931D02*
X1030810Y667471D01*
X1033350D01*
X1030810Y670012D01*
X1033350Y672551D01*
X1030810D01*
X1028270Y675091D01*
X1025730Y672551D01*
X1023190D01*
X1025730Y670012D01*
X1023190Y667471D01*
X1025730D01*
X1028270Y664931D01*
X1041860Y695412D02*
X1044400Y697952D01*
X1046940D01*
X1044400Y700491D01*
X1046940Y703031D01*
X1044400D01*
X1041860Y705572D01*
X1039320Y703031D01*
X1036780D01*
X1039320Y700491D01*
X1036780Y697952D01*
X1039320D01*
X1041860Y695412D01*
X650700Y733512D02*
X653240Y736051D01*
X655780D01*
X653240Y738592D01*
X655780Y741132D01*
X653240D01*
X650700Y743671D01*
X648160Y741132D01*
X645620D01*
X648160Y738592D01*
X645620Y736051D01*
X648160D01*
X650700Y733512D01*
Y743671D02*
X653240Y746211D01*
X655780D01*
X653240Y748752D01*
X655780Y751292D01*
X653240D01*
X650700Y753831D01*
X648160Y751292D01*
X645620D01*
X648160Y748752D01*
X645620Y746211D01*
X648160D01*
X650700Y743671D01*
Y753831D02*
X653240Y756372D01*
X655780D01*
X653240Y758912D01*
X655780Y761451D01*
X653240D01*
X650700Y763991D01*
X648160Y761451D01*
X645620D01*
X648160Y758912D01*
X645620Y756372D01*
X648160D01*
X650700Y753831D01*
Y763991D02*
X653240Y766532D01*
X655780D01*
X653240Y769072D01*
X655780Y771611D01*
X653240D01*
X650700Y774152D01*
X648160Y771611D01*
X645620D01*
X648160Y769072D01*
X645620Y766532D01*
X648160D01*
X650700Y763991D01*
Y774152D02*
X653240Y776692D01*
X655780D01*
X653240Y779231D01*
X655780Y781771D01*
X653240D01*
X650700Y784312D01*
X648160Y781771D01*
X645620D01*
X648160Y779231D01*
X645620Y776692D01*
X648160D01*
X650700Y774152D01*
X918416Y628355D02*
X920956Y630896D01*
X923496D01*
X920956Y633436D01*
X923496Y635975D01*
X920956D01*
X918416Y638516D01*
X915876Y635975D01*
X913336D01*
X915876Y633436D01*
X913336Y630896D01*
X915876D01*
X918416Y628355D01*
X930608Y664424D02*
X933148Y666964D01*
X935688D01*
X933148Y669503D01*
X935688Y672044D01*
X933148D01*
X930608Y674584D01*
X928068Y672044D01*
X925528D01*
X928068Y669503D01*
X925528Y666964D01*
X928068D01*
X930608Y664424D01*
X905462Y611591D02*
X908002Y614132D01*
X910542D01*
X908002Y616671D01*
X910542Y619212D01*
X908002D01*
X905462Y621752D01*
X902922Y619212D01*
X900382D01*
X902922Y616671D01*
X900382Y614132D01*
X902922D01*
X905462Y611591D01*
X944070Y618703D02*
X946610Y621244D01*
X949150D01*
X946610Y623783D01*
X949150Y626324D01*
X946610D01*
X944070Y628863D01*
X941530Y626324D01*
X938990D01*
X941530Y623783D01*
X938990Y621244D01*
X941530D01*
X944070Y618703D01*
X893524Y690585D02*
X896064Y693126D01*
X898604D01*
X896064Y695666D01*
X898604Y698205D01*
X896064D01*
X893524Y700745D01*
X890984Y698205D01*
X888444D01*
X890984Y695666D01*
X888444Y693126D01*
X890984D01*
X893524Y690585D01*
X880570D02*
X883110Y693126D01*
X885650D01*
X883110Y695666D01*
X885650Y698205D01*
X883110D01*
X880570Y700745D01*
X878030Y698205D01*
X875490D01*
X878030Y695666D01*
X875490Y693126D01*
X878030D01*
X880570Y690585D01*
X542750Y805901D02*
X545290Y808441D01*
X547830D01*
X545290Y810982D01*
X547830Y813521D01*
X545290D01*
X542750Y816061D01*
X540210Y813521D01*
X537670D01*
X540210Y810982D01*
X537670Y808441D01*
X540210D01*
X542750Y805901D01*
X551640D02*
X554180Y808441D01*
X556720D01*
X554180Y810982D01*
X556720Y813521D01*
X554180D01*
X551640Y816061D01*
X549100Y813521D01*
X546560D01*
X549100Y810982D01*
X546560Y808441D01*
X549100D01*
X551640Y805901D01*
X588470Y770341D02*
X591010Y772881D01*
X593550D01*
X591010Y775422D01*
X593550Y777962D01*
X591010D01*
X588470Y780501D01*
X585930Y777962D01*
X583390D01*
X585930Y775422D01*
X583390Y772881D01*
X585930D01*
X588470Y770341D01*
X543512Y583144D02*
X546052Y588223D01*
X543512Y593303D01*
X548592Y590764D01*
X553672Y593303D01*
X551132Y588223D01*
X553672Y583144D01*
X548592Y585684D01*
X543512Y583144D01*
X544809Y560510D02*
X547349Y565590D01*
X544809Y570670D01*
X549889Y568130D01*
X554969Y570670D01*
X552429Y565590D01*
X554969Y560510D01*
X549889Y563050D01*
X544809Y560510D01*
X559106Y375980D02*
X561646Y381060D01*
X559106Y386140D01*
X564186Y383600D01*
X569266Y386140D01*
X566726Y381060D01*
X569266Y375980D01*
X564186Y378520D01*
X559106Y375980D01*
X490934Y513548D02*
X493474Y518628D01*
X490934Y523708D01*
X496014Y521167D01*
X501094Y523708D01*
X498554Y518628D01*
X501094Y513548D01*
X496014Y516087D01*
X490934Y513548D01*
X621490Y587462D02*
X624030Y592542D01*
X621490Y597621D01*
X626570Y595081D01*
X631650Y597621D01*
X629110Y592542D01*
X631650Y587462D01*
X626570Y590001D01*
X621490Y587462D01*
X771350Y585938D02*
X773890Y591017D01*
X771350Y596097D01*
X776430Y593558D01*
X781510Y596097D01*
X778970Y591017D01*
X781510Y585938D01*
X776430Y588478D01*
X771350Y585938D01*
X515052Y623772D02*
X517592Y628852D01*
X515052Y633932D01*
X520132Y631392D01*
X525212Y633932D01*
X522672Y628852D01*
X525212Y623772D01*
X520132Y626312D01*
X515052Y623772D01*
Y641298D02*
X517592Y646378D01*
X515052Y651458D01*
X520132Y648918D01*
X525212Y651458D01*
X522672Y646378D01*
X525212Y641298D01*
X520132Y643838D01*
X515052Y641298D01*
X397000Y369492D02*
X399540Y372032D01*
X402080D01*
X399540Y374571D01*
X402080Y377112D01*
X399540D01*
X397000Y379651D01*
X394460Y377112D01*
X391920D01*
X394460Y374571D01*
X391920Y372032D01*
X394460D01*
X397000Y369492D01*
X417000D02*
X419540Y372032D01*
X422080D01*
X419540Y374571D01*
X422080Y377112D01*
X419540D01*
X417000Y379651D01*
X414460Y377112D01*
X411920D01*
X414460Y374571D01*
X411920Y372032D01*
X414460D01*
X417000Y369492D01*
X437000D02*
X439540Y372032D01*
X442080D01*
X439540Y374571D01*
X442080Y377112D01*
X439540D01*
X437000Y379651D01*
X434460Y377112D01*
X431920D01*
X434460Y374571D01*
X431920Y372032D01*
X434460D01*
X437000Y369492D01*
X527000D02*
X529540Y372032D01*
X532080D01*
X529540Y374571D01*
X532080Y377112D01*
X529540D01*
X527000Y379651D01*
X524460Y377112D01*
X521920D01*
X524460Y374571D01*
X521920Y372032D01*
X524460D01*
X527000Y369492D01*
X607000D02*
X609540Y372032D01*
X612080D01*
X609540Y374571D01*
X612080Y377112D01*
X609540D01*
X607000Y379651D01*
X604460Y377112D01*
X601920D01*
X604460Y374571D01*
X601920Y372032D01*
X604460D01*
X607000Y369492D01*
X627000D02*
X629540Y372032D01*
X632080D01*
X629540Y374571D01*
X632080Y377112D01*
X629540D01*
X627000Y379651D01*
X624460Y377112D01*
X621920D01*
X624460Y374571D01*
X621920Y372032D01*
X624460D01*
X627000Y369492D01*
X647000D02*
X649540Y372032D01*
X652080D01*
X649540Y374571D01*
X652080Y377112D01*
X649540D01*
X647000Y379651D01*
X644460Y377112D01*
X641920D01*
X644460Y374571D01*
X641920Y372032D01*
X644460D01*
X647000Y369492D01*
X667000D02*
X669540Y372032D01*
X672080D01*
X669540Y374571D01*
X672080Y377112D01*
X669540D01*
X667000Y379651D01*
X664460Y377112D01*
X661920D01*
X664460Y374571D01*
X661920Y372032D01*
X664460D01*
X667000Y369492D01*
X687000D02*
X689540Y372032D01*
X692080D01*
X689540Y374571D01*
X692080Y377112D01*
X689540D01*
X687000Y379651D01*
X684460Y377112D01*
X681920D01*
X684460Y374571D01*
X681920Y372032D01*
X684460D01*
X687000Y369492D01*
X707000D02*
X709540Y372032D01*
X712080D01*
X709540Y374571D01*
X712080Y377112D01*
X709540D01*
X707000Y379651D01*
X704460Y377112D01*
X701920D01*
X704460Y374571D01*
X701920Y372032D01*
X704460D01*
X707000Y369492D01*
X727000D02*
X729540Y372032D01*
X732080D01*
X729540Y374571D01*
X732080Y377112D01*
X729540D01*
X727000Y379651D01*
X724460Y377112D01*
X721920D01*
X724460Y374571D01*
X721920Y372032D01*
X724460D01*
X727000Y369492D01*
X747000D02*
X749540Y372032D01*
X752080D01*
X749540Y374571D01*
X752080Y377112D01*
X749540D01*
X747000Y379651D01*
X744460Y377112D01*
X741920D01*
X744460Y374571D01*
X741920Y372032D01*
X744460D01*
X747000Y369492D01*
X767000D02*
X769540Y372032D01*
X772080D01*
X769540Y374571D01*
X772080Y377112D01*
X769540D01*
X767000Y379651D01*
X764460Y377112D01*
X761920D01*
X764460Y374571D01*
X761920Y372032D01*
X764460D01*
X767000Y369492D01*
X787000D02*
X789540Y372032D01*
X792080D01*
X789540Y374571D01*
X792080Y377112D01*
X789540D01*
X787000Y379651D01*
X784460Y377112D01*
X781920D01*
X784460Y374571D01*
X781920Y372032D01*
X784460D01*
X787000Y369492D01*
X397000Y389492D02*
X399540Y392032D01*
X402080D01*
X399540Y394571D01*
X402080Y397112D01*
X399540D01*
X397000Y399651D01*
X394460Y397112D01*
X391920D01*
X394460Y394571D01*
X391920Y392032D01*
X394460D01*
X397000Y389492D01*
Y409492D02*
X399540Y412032D01*
X402080D01*
X399540Y414571D01*
X402080Y417112D01*
X399540D01*
X397000Y419651D01*
X394460Y417112D01*
X391920D01*
X394460Y414571D01*
X391920Y412032D01*
X394460D01*
X397000Y409492D01*
Y429492D02*
X399540Y432032D01*
X402080D01*
X399540Y434571D01*
X402080Y437112D01*
X399540D01*
X397000Y439651D01*
X394460Y437112D01*
X391920D01*
X394460Y434571D01*
X391920Y432032D01*
X394460D01*
X397000Y429492D01*
Y449492D02*
X399540Y452032D01*
X402080D01*
X399540Y454571D01*
X402080Y457112D01*
X399540D01*
X397000Y459651D01*
X394460Y457112D01*
X391920D01*
X394460Y454571D01*
X391920Y452032D01*
X394460D01*
X397000Y449492D01*
Y479492D02*
X399540Y482032D01*
X402080D01*
X399540Y484571D01*
X402080Y487112D01*
X399540D01*
X397000Y489651D01*
X394460Y487112D01*
X391920D01*
X394460Y484571D01*
X391920Y482032D01*
X394460D01*
X397000Y479492D01*
Y519492D02*
X399540Y522032D01*
X402080D01*
X399540Y524571D01*
X402080Y527112D01*
X399540D01*
X397000Y529651D01*
X394460Y527112D01*
X391920D01*
X394460Y524571D01*
X391920Y522032D01*
X394460D01*
X397000Y519492D01*
Y539492D02*
X399540Y542032D01*
X402080D01*
X399540Y544571D01*
X402080Y547112D01*
X399540D01*
X397000Y549651D01*
X394460Y547112D01*
X391920D01*
X394460Y544571D01*
X391920Y542032D01*
X394460D01*
X397000Y539492D01*
Y579492D02*
X399540Y582032D01*
X402080D01*
X399540Y584571D01*
X402080Y587112D01*
X399540D01*
X397000Y589651D01*
X394460Y587112D01*
X391920D01*
X394460Y584571D01*
X391920Y582032D01*
X394460D01*
X397000Y579492D01*
Y619492D02*
X399540Y622032D01*
X402080D01*
X399540Y624571D01*
X402080Y627112D01*
X399540D01*
X397000Y629651D01*
X394460Y627112D01*
X391920D01*
X394460Y624571D01*
X391920Y622032D01*
X394460D01*
X397000Y619492D01*
Y639492D02*
X399540Y642031D01*
X402080D01*
X399540Y644572D01*
X402080Y647112D01*
X399540D01*
X397000Y649651D01*
X394460Y647112D01*
X391920D01*
X394460Y644572D01*
X391920Y642031D01*
X394460D01*
X397000Y639492D01*
X417000D02*
X419540Y642031D01*
X422080D01*
X419540Y644572D01*
X422080Y647112D01*
X419540D01*
X417000Y649651D01*
X414460Y647112D01*
X411920D01*
X414460Y644572D01*
X411920Y642031D01*
X414460D01*
X417000Y639492D01*
X437000D02*
X439540Y642031D01*
X442080D01*
X439540Y644572D01*
X442080Y647112D01*
X439540D01*
X437000Y649651D01*
X434460Y647112D01*
X431920D01*
X434460Y644572D01*
X431920Y642031D01*
X434460D01*
X437000Y639492D01*
X457000D02*
X459540Y642031D01*
X462080D01*
X459540Y644572D01*
X462080Y647112D01*
X459540D01*
X457000Y649651D01*
X454460Y647112D01*
X451920D01*
X454460Y644572D01*
X451920Y642031D01*
X454460D01*
X457000Y639492D01*
X477000D02*
X479540Y642031D01*
X482080D01*
X479540Y644572D01*
X482080Y647112D01*
X479540D01*
X477000Y649651D01*
X474460Y647112D01*
X471920D01*
X474460Y644572D01*
X471920Y642031D01*
X474460D01*
X477000Y639492D01*
X497000D02*
X499540Y642031D01*
X502080D01*
X499540Y644572D01*
X502080Y647112D01*
X499540D01*
X497000Y649651D01*
X494460Y647112D01*
X491920D01*
X494460Y644572D01*
X491920Y642031D01*
X494460D01*
X497000Y639492D01*
X537000D02*
X539540Y642031D01*
X542080D01*
X539540Y644572D01*
X542080Y647112D01*
X539540D01*
X537000Y649651D01*
X534460Y647112D01*
X531920D01*
X534460Y644572D01*
X531920Y642031D01*
X534460D01*
X537000Y639492D01*
X557000D02*
X559540Y642031D01*
X562080D01*
X559540Y644572D01*
X562080Y647112D01*
X559540D01*
X557000Y649651D01*
X554460Y647112D01*
X551920D01*
X554460Y644572D01*
X551920Y642031D01*
X554460D01*
X557000Y639492D01*
X577000D02*
X579540Y642031D01*
X582080D01*
X579540Y644572D01*
X582080Y647112D01*
X579540D01*
X577000Y649651D01*
X574460Y647112D01*
X571920D01*
X574460Y644572D01*
X571920Y642031D01*
X574460D01*
X577000Y639492D01*
X677000D02*
X679540Y642031D01*
X682080D01*
X679540Y644572D01*
X682080Y647112D01*
X679540D01*
X677000Y649651D01*
X674460Y647112D01*
X671920D01*
X674460Y644572D01*
X671920Y642031D01*
X674460D01*
X677000Y639492D01*
X697000D02*
X699540Y642031D01*
X702080D01*
X699540Y644572D01*
X702080Y647112D01*
X699540D01*
X697000Y649651D01*
X694460Y647112D01*
X691920D01*
X694460Y644572D01*
X691920Y642031D01*
X694460D01*
X697000Y639492D01*
X717000D02*
X719540Y642031D01*
X722080D01*
X719540Y644572D01*
X722080Y647112D01*
X719540D01*
X717000Y649651D01*
X714460Y647112D01*
X711920D01*
X714460Y644572D01*
X711920Y642031D01*
X714460D01*
X717000Y639492D01*
X737000D02*
X739540Y642031D01*
X742080D01*
X739540Y644572D01*
X742080Y647112D01*
X739540D01*
X737000Y649651D01*
X734460Y647112D01*
X731920D01*
X734460Y644572D01*
X731920Y642031D01*
X734460D01*
X737000Y639492D01*
X757000D02*
X759540Y642031D01*
X762080D01*
X759540Y644572D01*
X762080Y647112D01*
X759540D01*
X757000Y649651D01*
X754460Y647112D01*
X751920D01*
X754460Y644572D01*
X751920Y642031D01*
X754460D01*
X757000Y639492D01*
X777000D02*
X779540Y642031D01*
X782080D01*
X779540Y644572D01*
X782080Y647112D01*
X779540D01*
X777000Y649651D01*
X774460Y647112D01*
X771920D01*
X774460Y644572D01*
X771920Y642031D01*
X774460D01*
X777000Y639492D01*
X787000Y389492D02*
X789540Y392032D01*
X792080D01*
X789540Y394571D01*
X792080Y397112D01*
X789540D01*
X787000Y399651D01*
X784460Y397112D01*
X781920D01*
X784460Y394571D01*
X781920Y392032D01*
X784460D01*
X787000Y389492D01*
Y409492D02*
X789540Y412032D01*
X792080D01*
X789540Y414571D01*
X792080Y417112D01*
X789540D01*
X787000Y419651D01*
X784460Y417112D01*
X781920D01*
X784460Y414571D01*
X781920Y412032D01*
X784460D01*
X787000Y409492D01*
Y429492D02*
X789540Y432032D01*
X792080D01*
X789540Y434571D01*
X792080Y437112D01*
X789540D01*
X787000Y439651D01*
X784460Y437112D01*
X781920D01*
X784460Y434571D01*
X781920Y432032D01*
X784460D01*
X787000Y429492D01*
Y449492D02*
X789540Y452032D01*
X792080D01*
X789540Y454571D01*
X792080Y457112D01*
X789540D01*
X787000Y459651D01*
X784460Y457112D01*
X781920D01*
X784460Y454571D01*
X781920Y452032D01*
X784460D01*
X787000Y449492D01*
Y469492D02*
X789540Y472032D01*
X792080D01*
X789540Y474571D01*
X792080Y477112D01*
X789540D01*
X787000Y479651D01*
X784460Y477112D01*
X781920D01*
X784460Y474571D01*
X781920Y472032D01*
X784460D01*
X787000Y469492D01*
Y489492D02*
X789540Y492032D01*
X792080D01*
X789540Y494571D01*
X792080Y497112D01*
X789540D01*
X787000Y499651D01*
X784460Y497112D01*
X781920D01*
X784460Y494571D01*
X781920Y492032D01*
X784460D01*
X787000Y489492D01*
Y529492D02*
X789540Y532032D01*
X792080D01*
X789540Y534571D01*
X792080Y537112D01*
X789540D01*
X787000Y539651D01*
X784460Y537112D01*
X781920D01*
X784460Y534571D01*
X781920Y532032D01*
X784460D01*
X787000Y529492D01*
Y549492D02*
X789540Y552032D01*
X792080D01*
X789540Y554571D01*
X792080Y557112D01*
X789540D01*
X787000Y559651D01*
X784460Y557112D01*
X781920D01*
X784460Y554571D01*
X781920Y552032D01*
X784460D01*
X787000Y549492D01*
Y569492D02*
X789540Y572032D01*
X792080D01*
X789540Y574571D01*
X792080Y577112D01*
X789540D01*
X787000Y579651D01*
X784460Y577112D01*
X781920D01*
X784460Y574571D01*
X781920Y572032D01*
X784460D01*
X787000Y569492D01*
Y599492D02*
X789540Y602032D01*
X792080D01*
X789540Y604571D01*
X792080Y607112D01*
X789540D01*
X787000Y609651D01*
X784460Y607112D01*
X781920D01*
X784460Y604571D01*
X781920Y602032D01*
X784460D01*
X787000Y599492D01*
X668734Y632420D02*
X671274Y634959D01*
X673814D01*
X671274Y637500D01*
X673814Y640040D01*
X671274D01*
X668734Y642579D01*
X666194Y640040D01*
X663654D01*
X666194Y637500D01*
X663654Y634959D01*
X666194D01*
X668734Y632420D01*
X655752Y604960D02*
X658292Y607500D01*
X660832D01*
X658292Y610040D01*
X660832Y612580D01*
X658292D01*
X655752Y615120D01*
X653212Y612580D01*
X650672D01*
X653212Y610040D01*
X650672Y607500D01*
X653212D01*
X655752Y604960D01*
X648654Y597862D02*
X651194Y600402D01*
X653734D01*
X651194Y602942D01*
X653734Y605482D01*
X651194D01*
X648654Y608022D01*
X646114Y605482D01*
X643574D01*
X646114Y602942D01*
X643574Y600402D01*
X646114D01*
X648654Y597862D01*
X641556Y590764D02*
X644096Y593303D01*
X646636D01*
X644096Y595844D01*
X646636Y598383D01*
X644096D01*
X641556Y600924D01*
X639016Y598383D01*
X636476D01*
X639016Y595844D01*
X636476Y593303D01*
X639016D01*
X641556Y590764D01*
X442420Y700491D02*
X444960Y703031D01*
X447500D01*
X444960Y705572D01*
X447500Y708111D01*
X444960D01*
X442420Y710651D01*
X439880Y708111D01*
X437340D01*
X439880Y705572D01*
X437340Y703031D01*
X439880D01*
X442420Y700491D01*
X455120D02*
X457660Y703031D01*
X460200D01*
X457660Y705572D01*
X460200Y708111D01*
X457660D01*
X455120Y710651D01*
X452580Y708111D01*
X450040D01*
X452580Y705572D01*
X450040Y703031D01*
X452580D01*
X455120Y700491D01*
X353520Y603971D02*
X356060Y606511D01*
X358600D01*
X356060Y609052D01*
X358600Y611591D01*
X356060D01*
X353520Y614132D01*
X350980Y611591D01*
X348440D01*
X350980Y609052D01*
X348440Y606511D01*
X350980D01*
X353520Y603971D01*
X338280D02*
X340820Y606511D01*
X343360D01*
X340820Y609052D01*
X343360Y611591D01*
X340820D01*
X338280Y614132D01*
X335740Y611591D01*
X333200D01*
X335740Y609052D01*
X333200Y606511D01*
X335740D01*
X338280Y603971D01*
X424640Y501540D02*
X427180Y504080D01*
X429720D01*
X427180Y506620D01*
X429720Y509160D01*
X427180D01*
X424640Y511700D01*
X422100Y509160D01*
X419560D01*
X422100Y506620D01*
X419560Y504080D01*
X422100D01*
X424640Y501540D01*
X434800Y492211D02*
X437340Y494752D01*
X439880D01*
X437340Y497291D01*
X439880Y499832D01*
X437340D01*
X434800Y502371D01*
X432260Y499832D01*
X429720D01*
X432260Y497291D01*
X429720Y494752D01*
X432260D01*
X434800Y492211D01*
X663400Y705572D02*
X665940Y708111D01*
X668480D01*
X665940Y710651D01*
X668480Y713192D01*
X665940D01*
X663400Y715732D01*
X660860Y713192D01*
X658320D01*
X660860Y710651D01*
X658320Y708111D01*
X660860D01*
X663400Y705572D01*
X673560D02*
X676100Y708111D01*
X678640D01*
X676100Y710651D01*
X678640Y713192D01*
X676100D01*
X673560Y715732D01*
X671020Y713192D01*
X668480D01*
X671020Y710651D01*
X668480Y708111D01*
X671020D01*
X673560Y705572D01*
X683720D02*
X686260Y708111D01*
X688800D01*
X686260Y710651D01*
X688800Y713192D01*
X686260D01*
X683720Y715732D01*
X681180Y713192D01*
X678640D01*
X681180Y710651D01*
X678640Y708111D01*
X681180D01*
X683720Y705572D01*
X882348Y779740D02*
X884888Y782280D01*
X887428D01*
X884888Y784819D01*
X887428Y787359D01*
X884888D01*
X882348Y789900D01*
X879808Y787359D01*
X877268D01*
X879808Y784819D01*
X877268Y782280D01*
X879808D01*
X882348Y779740D01*
X897588Y763484D02*
X900128Y766023D01*
X902668D01*
X900128Y768564D01*
X902668Y771104D01*
X900128D01*
X897588Y773643D01*
X895048Y771104D01*
X892508D01*
X895048Y768564D01*
X892508Y766023D01*
X895048D01*
X897588Y763484D01*
X705818Y718271D02*
X708358Y720811D01*
X710898D01*
X708358Y723352D01*
X710898Y725891D01*
X708358D01*
X705818Y728431D01*
X703278Y725891D01*
X700738D01*
X703278Y723352D01*
X700738Y720811D01*
X703278D01*
X705818Y718271D01*
Y738337D02*
X708358Y740878D01*
X710898D01*
X708358Y743418D01*
X710898Y745957D01*
X708358D01*
X705818Y748497D01*
X703278Y745957D01*
X700738D01*
X703278Y743418D01*
X700738Y740878D01*
X703278D01*
X705818Y738337D01*
Y708111D02*
X708358Y710651D01*
X710898D01*
X708358Y713192D01*
X710898Y715732D01*
X708358D01*
X705818Y718271D01*
X703278Y715732D01*
X700738D01*
X703278Y713192D01*
X700738Y710651D01*
X703278D01*
X705818Y708111D01*
Y728431D02*
X708358Y730972D01*
X710898D01*
X708358Y733512D01*
X710898Y736051D01*
X708358D01*
X705818Y738592D01*
X703278Y736051D01*
X700738D01*
X703278Y733512D01*
X700738Y730972D01*
X703278D01*
X705818Y728431D01*
Y697952D02*
X708358Y700491D01*
X710898D01*
X708358Y703031D01*
X710898Y705572D01*
X708358D01*
X705818Y708111D01*
X703278Y705572D01*
X700738D01*
X703278Y703031D01*
X700738Y700491D01*
X703278D01*
X705818Y697952D01*
X588470Y756372D02*
X591010Y758912D01*
X593550D01*
X591010Y761451D01*
X593550Y763991D01*
X591010D01*
X588470Y766532D01*
X585930Y763991D01*
X583390D01*
X585930Y761451D01*
X583390Y758912D01*
X585930D01*
X588470Y756372D01*
D136*
X346080Y642320D02*
G03*
X346080Y642320I-5080J0D01*
G01*
Y680420D02*
G03*
X346080Y680420I-5080J0D01*
G01*
Y718520D02*
G03*
X346080Y718520I-5080J0D01*
G01*
Y756620D02*
G03*
X346080Y756620I-5080J0D01*
G01*
M02*
