G04*
G04 #@! TF.GenerationSoftware,Altium Limited,CircuitStudio,1.5.1 (1.5.1.13)*
G04*
G04 Layer_Physical_Order=2*
G04 Layer_Color=16765976*
%FSLAX44Y44*%
%MOMM*%
G71*
G01*
G75*
%ADD68C,1.8001*%
%ADD71C,0.8000*%
G36*
X1079000Y821759D02*
Y324572D01*
X1079000Y324571D01*
X257000D01*
X257000Y821174D01*
X259000Y823174D01*
X1077586D01*
X1079000Y821759D01*
D02*
G37*
%LPC*%
G36*
X548592Y596837D02*
X546362Y596544D01*
X544285Y595683D01*
X542501Y594314D01*
X541132Y592530D01*
X540271Y590453D01*
X539978Y588223D01*
X540271Y585994D01*
X541132Y583917D01*
X542501Y582133D01*
X544285Y580764D01*
X546362Y579903D01*
X548592Y579610D01*
X550821Y579903D01*
X552898Y580764D01*
X554683Y582133D01*
X556051Y583917D01*
X556912Y585994D01*
X557205Y588223D01*
X556912Y590453D01*
X556051Y592530D01*
X554683Y594314D01*
X552898Y595683D01*
X550821Y596544D01*
X548592Y596837D01*
D02*
G37*
G36*
X776430Y599631D02*
X774200Y599338D01*
X772123Y598477D01*
X770339Y597108D01*
X768970Y595324D01*
X768110Y593247D01*
X767816Y591017D01*
X768110Y588788D01*
X768970Y586711D01*
X770339Y584927D01*
X772123Y583558D01*
X774200Y582697D01*
X776430Y582404D01*
X778659Y582697D01*
X780736Y583558D01*
X782521Y584927D01*
X783889Y586711D01*
X784750Y588788D01*
X785043Y591017D01*
X784750Y593247D01*
X783889Y595324D01*
X782521Y597108D01*
X780736Y598477D01*
X778659Y599338D01*
X776430Y599631D01*
D02*
G37*
G36*
X341000Y597485D02*
X337204Y596986D01*
X333667Y595520D01*
X330630Y593190D01*
X328299Y590152D01*
X326834Y586615D01*
X326334Y582820D01*
X326834Y579024D01*
X328299Y575487D01*
X330630Y572449D01*
X333667Y570119D01*
X337204Y568654D01*
X341000Y568154D01*
X344795Y568654D01*
X348333Y570119D01*
X351370Y572449D01*
X353701Y575487D01*
X355166Y579024D01*
X355665Y582820D01*
X355166Y586615D01*
X353701Y590152D01*
X351370Y593190D01*
X348333Y595520D01*
X344795Y596986D01*
X341000Y597485D01*
D02*
G37*
G36*
Y559385D02*
X337204Y558886D01*
X333667Y557420D01*
X330630Y555090D01*
X328299Y552052D01*
X326834Y548515D01*
X326334Y544720D01*
X326834Y540924D01*
X328299Y537387D01*
X330630Y534349D01*
X333667Y532019D01*
X337204Y530554D01*
X341000Y530054D01*
X344795Y530554D01*
X348333Y532019D01*
X351370Y534349D01*
X353701Y537387D01*
X355166Y540924D01*
X355665Y544720D01*
X355166Y548515D01*
X353701Y552052D01*
X351370Y555090D01*
X348333Y557420D01*
X344795Y558886D01*
X341000Y559385D01*
D02*
G37*
G36*
X549889Y574204D02*
X547660Y573910D01*
X545582Y573050D01*
X543798Y571681D01*
X542430Y569897D01*
X541569Y567819D01*
X541275Y565590D01*
X541569Y563361D01*
X542430Y561283D01*
X543798Y559499D01*
X545582Y558130D01*
X547660Y557270D01*
X549889Y556976D01*
X552119Y557270D01*
X554196Y558130D01*
X555980Y559499D01*
X557349Y561283D01*
X558209Y563361D01*
X558503Y565590D01*
X558209Y567819D01*
X557349Y569897D01*
X555980Y571681D01*
X554196Y573050D01*
X552119Y573910D01*
X549889Y574204D01*
D02*
G37*
G36*
X905462Y623268D02*
X903754Y623043D01*
X902163Y622384D01*
X900797Y621336D01*
X899749Y619970D01*
X899090Y618379D01*
X898865Y616671D01*
X899090Y614964D01*
X899749Y613373D01*
X900797Y612007D01*
X902163Y610959D01*
X903754Y610300D01*
X905462Y610075D01*
X907169Y610300D01*
X908760Y610959D01*
X910126Y612007D01*
X911174Y613373D01*
X911833Y614964D01*
X912058Y616671D01*
X911833Y618379D01*
X911174Y619970D01*
X910126Y621336D01*
X908760Y622384D01*
X907169Y623043D01*
X905462Y623268D01*
D02*
G37*
G36*
X944070Y630380D02*
X942362Y630155D01*
X940771Y629496D01*
X939405Y628448D01*
X938357Y627082D01*
X937698Y625491D01*
X937473Y623783D01*
X937698Y622076D01*
X938357Y620485D01*
X939405Y619119D01*
X940771Y618071D01*
X942362Y617412D01*
X944070Y617187D01*
X945777Y617412D01*
X947368Y618071D01*
X948734Y619119D01*
X949782Y620485D01*
X950441Y622076D01*
X950666Y623783D01*
X950441Y625491D01*
X949782Y627082D01*
X948734Y628448D01*
X947368Y629496D01*
X945777Y630155D01*
X944070Y630380D01*
D02*
G37*
G36*
X353520Y615648D02*
X351812Y615423D01*
X350221Y614764D01*
X348855Y613716D01*
X347807Y612350D01*
X347148Y610759D01*
X346923Y609052D01*
X347148Y607344D01*
X347807Y605753D01*
X348855Y604387D01*
X350221Y603339D01*
X351812Y602680D01*
X353520Y602455D01*
X355227Y602680D01*
X356818Y603339D01*
X358184Y604387D01*
X359232Y605753D01*
X359891Y607344D01*
X360116Y609052D01*
X359891Y610759D01*
X359232Y612350D01*
X358184Y613716D01*
X356818Y614764D01*
X355227Y615423D01*
X353520Y615648D01*
D02*
G37*
G36*
X655752Y616636D02*
X654045Y616412D01*
X652454Y615753D01*
X651088Y614704D01*
X650040Y613338D01*
X649380Y611747D01*
X649156Y610040D01*
X648654Y609538D01*
X646947Y609313D01*
X645356Y608654D01*
X643990Y607606D01*
X642941Y606240D01*
X642282Y604649D01*
X642245Y604366D01*
X641688Y602809D01*
X640131Y602252D01*
X639848Y602215D01*
X638257Y601556D01*
X636891Y600508D01*
X635843Y599142D01*
X635474Y598251D01*
X633610Y597816D01*
X633239Y597878D01*
X632660Y598632D01*
X630877Y600001D01*
X628799Y600862D01*
X626570Y601155D01*
X624340Y600862D01*
X622263Y600001D01*
X620479Y598632D01*
X619110Y596848D01*
X618250Y594771D01*
X617956Y592542D01*
X618250Y590312D01*
X619110Y588235D01*
X620479Y586451D01*
X622263Y585082D01*
X624340Y584221D01*
X626570Y583928D01*
X628799Y584221D01*
X630877Y585082D01*
X632660Y586451D01*
X634029Y588235D01*
X634890Y590312D01*
X634911Y590474D01*
X636435Y591017D01*
X637009Y591088D01*
X638257Y590131D01*
X639848Y589472D01*
X641556Y589247D01*
X643263Y589472D01*
X644854Y590131D01*
X646220Y591179D01*
X647268Y592545D01*
X647927Y594136D01*
X647965Y594419D01*
X648522Y595976D01*
X650079Y596533D01*
X650361Y596570D01*
X651952Y597229D01*
X653318Y598277D01*
X654367Y599644D01*
X655026Y601235D01*
X655250Y602942D01*
X655752Y603443D01*
X657459Y603668D01*
X659050Y604327D01*
X660417Y605376D01*
X661465Y606742D01*
X662124Y608333D01*
X662349Y610040D01*
X662124Y611747D01*
X661465Y613338D01*
X660417Y614704D01*
X659050Y615753D01*
X657459Y616412D01*
X655752Y616636D01*
D02*
G37*
G36*
X338280Y615648D02*
X336572Y615423D01*
X334981Y614764D01*
X333615Y613716D01*
X332567Y612350D01*
X331908Y610759D01*
X331683Y609052D01*
X331908Y607344D01*
X332567Y605753D01*
X333615Y604387D01*
X334981Y603339D01*
X336572Y602680D01*
X338280Y602455D01*
X339987Y602680D01*
X341578Y603339D01*
X342944Y604387D01*
X343992Y605753D01*
X344651Y607344D01*
X344876Y609052D01*
X344651Y610759D01*
X343992Y612350D01*
X342944Y613716D01*
X341578Y614764D01*
X339987Y615423D01*
X338280Y615648D01*
D02*
G37*
G36*
X496014Y527241D02*
X493784Y526948D01*
X491707Y526087D01*
X489923Y524718D01*
X488554Y522934D01*
X487693Y520857D01*
X487400Y518628D01*
X487693Y516398D01*
X488554Y514321D01*
X489923Y512537D01*
X491707Y511168D01*
X493784Y510307D01*
X496014Y510014D01*
X498243Y510307D01*
X500321Y511168D01*
X502104Y512537D01*
X503473Y514321D01*
X504334Y516398D01*
X504627Y518628D01*
X504334Y520857D01*
X503473Y522934D01*
X502104Y524718D01*
X500321Y526087D01*
X498243Y526948D01*
X496014Y527241D01*
D02*
G37*
G36*
X897080Y440612D02*
X894328Y440250D01*
X891764Y439188D01*
X889563Y437499D01*
X887873Y435297D01*
X886811Y432733D01*
X886449Y429981D01*
X886811Y427230D01*
X887873Y424666D01*
X889563Y422464D01*
X891764Y420775D01*
X894328Y419713D01*
X897080Y419351D01*
X899831Y419713D01*
X902395Y420775D01*
X904597Y422464D01*
X906286Y424666D01*
X907348Y427230D01*
X907711Y429981D01*
X907348Y432733D01*
X906286Y435297D01*
X904597Y437499D01*
X902395Y439188D01*
X899831Y440250D01*
X897080Y440612D01*
D02*
G37*
G36*
X922480D02*
X919728Y440250D01*
X917164Y439188D01*
X914962Y437499D01*
X913273Y435297D01*
X912211Y432733D01*
X911849Y429981D01*
X912211Y427230D01*
X913273Y424666D01*
X914962Y422464D01*
X917164Y420775D01*
X919728Y419713D01*
X922480Y419351D01*
X925231Y419713D01*
X927795Y420775D01*
X929997Y422464D01*
X931686Y424666D01*
X932748Y427230D01*
X933111Y429981D01*
X932748Y432733D01*
X931686Y435297D01*
X929997Y437499D01*
X927795Y439188D01*
X925231Y440250D01*
X922480Y440612D01*
D02*
G37*
G36*
X341000Y445085D02*
X337204Y444586D01*
X333667Y443120D01*
X330630Y440790D01*
X328299Y437752D01*
X326834Y434215D01*
X326334Y430420D01*
X326834Y426624D01*
X328299Y423087D01*
X330630Y420049D01*
X333667Y417719D01*
X337204Y416254D01*
X341000Y415754D01*
X344795Y416254D01*
X348333Y417719D01*
X351370Y420049D01*
X353701Y423087D01*
X355166Y426624D01*
X355665Y430420D01*
X355166Y434215D01*
X353701Y437752D01*
X351370Y440790D01*
X348333Y443120D01*
X344795Y444586D01*
X341000Y445085D01*
D02*
G37*
G36*
X564186Y389674D02*
X561957Y389380D01*
X559879Y388520D01*
X558095Y387151D01*
X556726Y385367D01*
X555866Y383289D01*
X555573Y381060D01*
X555866Y378831D01*
X556726Y376753D01*
X558095Y374969D01*
X559879Y373600D01*
X561957Y372740D01*
X564186Y372446D01*
X566416Y372740D01*
X568493Y373600D01*
X570277Y374969D01*
X571646Y376753D01*
X572506Y378831D01*
X572800Y381060D01*
X572506Y383289D01*
X571646Y385367D01*
X570277Y387151D01*
X568493Y388520D01*
X566416Y389380D01*
X564186Y389674D01*
D02*
G37*
G36*
X355159Y406479D02*
X326841D01*
Y378160D01*
X355159D01*
Y406479D01*
D02*
G37*
G36*
X424640Y513216D02*
X422932Y512991D01*
X421342Y512332D01*
X419975Y511284D01*
X418927Y509918D01*
X418268Y508327D01*
X418043Y506620D01*
X418268Y504912D01*
X418927Y503321D01*
X419975Y501955D01*
X421342Y500907D01*
X422932Y500248D01*
X424640Y500023D01*
X426347Y500248D01*
X426870Y500465D01*
X428428Y498999D01*
X428203Y497291D01*
X428428Y495584D01*
X429087Y493993D01*
X430135Y492627D01*
X431502Y491579D01*
X433092Y490920D01*
X434800Y490695D01*
X436507Y490920D01*
X438098Y491579D01*
X439464Y492627D01*
X440512Y493993D01*
X441171Y495584D01*
X441396Y497291D01*
X441171Y498999D01*
X440512Y500590D01*
X439464Y501956D01*
X438098Y503004D01*
X436507Y503663D01*
X434800Y503888D01*
X433092Y503663D01*
X432569Y503446D01*
X431011Y504912D01*
X431236Y506620D01*
X431011Y508327D01*
X430352Y509918D01*
X429304Y511284D01*
X427938Y512332D01*
X426347Y512991D01*
X424640Y513216D01*
D02*
G37*
G36*
X341000Y521285D02*
X337204Y520786D01*
X333667Y519320D01*
X330630Y516990D01*
X328299Y513952D01*
X326834Y510415D01*
X326334Y506620D01*
X326834Y502824D01*
X328299Y499287D01*
X330630Y496249D01*
X333667Y493919D01*
X337204Y492454D01*
X341000Y491954D01*
X344795Y492454D01*
X348333Y493919D01*
X351370Y496249D01*
X353701Y499287D01*
X355166Y502824D01*
X355665Y506620D01*
X355166Y510415D01*
X353701Y513952D01*
X351370Y516990D01*
X348333Y519320D01*
X344795Y520786D01*
X341000Y521285D01*
D02*
G37*
G36*
Y483185D02*
X337204Y482686D01*
X333667Y481220D01*
X330630Y478890D01*
X328299Y475852D01*
X326834Y472315D01*
X326334Y468520D01*
X326834Y464724D01*
X328299Y461187D01*
X330630Y458149D01*
X333667Y455819D01*
X337204Y454354D01*
X341000Y453854D01*
X344795Y454354D01*
X348333Y455819D01*
X351370Y458149D01*
X353701Y461187D01*
X355166Y464724D01*
X355665Y468520D01*
X355166Y472315D01*
X353701Y475852D01*
X351370Y478890D01*
X348333Y481220D01*
X344795Y482686D01*
X341000Y483185D01*
D02*
G37*
G36*
X989790Y440612D02*
X987038Y440250D01*
X984474Y439188D01*
X982272Y437499D01*
X980583Y435297D01*
X979521Y432733D01*
X979159Y429981D01*
X979521Y427230D01*
X980583Y424666D01*
X982272Y422464D01*
X984474Y420775D01*
X987038Y419713D01*
X989790Y419351D01*
X992541Y419713D01*
X995105Y420775D01*
X997307Y422464D01*
X998996Y424666D01*
X1000058Y427230D01*
X1000421Y429981D01*
X1000058Y432733D01*
X998996Y435297D01*
X997307Y437499D01*
X995105Y439188D01*
X992541Y440250D01*
X989790Y440612D01*
D02*
G37*
G36*
X1015190D02*
X1012438Y440250D01*
X1009874Y439188D01*
X1007673Y437499D01*
X1005983Y435297D01*
X1004921Y432733D01*
X1004559Y429981D01*
X1004921Y427230D01*
X1005983Y424666D01*
X1007673Y422464D01*
X1009874Y420775D01*
X1012438Y419713D01*
X1015190Y419351D01*
X1017941Y419713D01*
X1020505Y420775D01*
X1022707Y422464D01*
X1024396Y424666D01*
X1025458Y427230D01*
X1025821Y429981D01*
X1025458Y432733D01*
X1024396Y435297D01*
X1022707Y437499D01*
X1020505Y439188D01*
X1017941Y440250D01*
X1015190Y440612D01*
D02*
G37*
G36*
X968200Y780972D02*
X965448Y780610D01*
X962884Y779548D01*
X960683Y777859D01*
X958993Y775657D01*
X957931Y773093D01*
X957569Y770341D01*
X957931Y767590D01*
X958993Y765026D01*
X960683Y762824D01*
X962884Y761135D01*
X965448Y760073D01*
X968200Y759710D01*
X970951Y760073D01*
X973515Y761135D01*
X975717Y762824D01*
X977406Y765026D01*
X978468Y767590D01*
X978831Y770341D01*
X978468Y773093D01*
X977406Y775657D01*
X975717Y777859D01*
X973515Y779548D01*
X970951Y780610D01*
X968200Y780972D01*
D02*
G37*
G36*
X993600D02*
X990848Y780610D01*
X988284Y779548D01*
X986083Y777859D01*
X984393Y775657D01*
X983331Y773093D01*
X982969Y770341D01*
X983331Y767590D01*
X984393Y765026D01*
X986083Y762824D01*
X988284Y761135D01*
X990848Y760073D01*
X993600Y759710D01*
X996351Y760073D01*
X998915Y761135D01*
X1001117Y762824D01*
X1002806Y765026D01*
X1003868Y767590D01*
X1004231Y770341D01*
X1003868Y773093D01*
X1002806Y775657D01*
X1001117Y777859D01*
X998915Y779548D01*
X996351Y780610D01*
X993600Y780972D01*
D02*
G37*
G36*
X650700Y785828D02*
X648992Y785603D01*
X647402Y784944D01*
X646035Y783896D01*
X644987Y782530D01*
X644328Y780939D01*
X644103Y779231D01*
X644328Y777524D01*
X644987Y775933D01*
X645219Y775631D01*
X645856Y774152D01*
X645219Y772672D01*
X644987Y772370D01*
X644328Y770779D01*
X644103Y769072D01*
X644328Y767364D01*
X644987Y765773D01*
X645219Y765471D01*
X645856Y763991D01*
X645219Y762512D01*
X644987Y762210D01*
X644328Y760619D01*
X644103Y758912D01*
X644328Y757204D01*
X644987Y755613D01*
X645219Y755311D01*
X645856Y753831D01*
X645219Y752352D01*
X644987Y752050D01*
X644328Y750459D01*
X644103Y748752D01*
X644328Y747044D01*
X644987Y745453D01*
X645219Y745151D01*
X645856Y743671D01*
X645219Y742192D01*
X644987Y741890D01*
X644328Y740299D01*
X644103Y738592D01*
X644328Y736884D01*
X644987Y735293D01*
X646035Y733927D01*
X647402Y732879D01*
X648992Y732220D01*
X650700Y731995D01*
X652407Y732220D01*
X653998Y732879D01*
X655364Y733927D01*
X656412Y735293D01*
X657071Y736884D01*
X657296Y738592D01*
X657071Y740299D01*
X656412Y741890D01*
X656180Y742192D01*
X655543Y743671D01*
X656180Y745151D01*
X656412Y745453D01*
X657071Y747044D01*
X657296Y748752D01*
X657071Y750459D01*
X656412Y752050D01*
X656180Y752352D01*
X655543Y753831D01*
X656180Y755311D01*
X656412Y755613D01*
X657071Y757204D01*
X657296Y758912D01*
X657071Y760619D01*
X656412Y762210D01*
X656180Y762512D01*
X655543Y763991D01*
X656180Y765471D01*
X656412Y765773D01*
X657071Y767364D01*
X657296Y769072D01*
X657071Y770779D01*
X656412Y772370D01*
X656180Y772672D01*
X655543Y774152D01*
X656180Y775631D01*
X656412Y775933D01*
X657071Y777524D01*
X657296Y779231D01*
X657071Y780939D01*
X656412Y782530D01*
X655364Y783896D01*
X653998Y784944D01*
X652407Y785603D01*
X650700Y785828D01*
D02*
G37*
G36*
X341000Y730160D02*
X337987Y729763D01*
X335180Y728600D01*
X332769Y726750D01*
X330919Y724340D01*
X329756Y721532D01*
X329360Y718520D01*
X329756Y715507D01*
X330919Y712700D01*
X332769Y710289D01*
X335180Y708439D01*
X337987Y707276D01*
X341000Y706880D01*
X344012Y707276D01*
X346820Y708439D01*
X349230Y710289D01*
X351080Y712700D01*
X352243Y715507D01*
X352640Y718520D01*
X352243Y721532D01*
X351080Y724340D01*
X349230Y726750D01*
X346820Y728600D01*
X344012Y729763D01*
X341000Y730160D01*
D02*
G37*
G36*
X455120Y712168D02*
X453412Y711943D01*
X451822Y711284D01*
X450455Y710236D01*
X449985Y709623D01*
X449649Y709486D01*
X447891D01*
X447554Y709623D01*
X447084Y710236D01*
X445718Y711284D01*
X444127Y711943D01*
X442420Y712168D01*
X440712Y711943D01*
X439122Y711284D01*
X437755Y710236D01*
X436707Y708870D01*
X436048Y707279D01*
X435823Y705572D01*
X436048Y703864D01*
X436707Y702273D01*
X437755Y700907D01*
X439122Y699859D01*
X440712Y699200D01*
X442420Y698975D01*
X444127Y699200D01*
X445718Y699859D01*
X447084Y700907D01*
X447554Y701520D01*
X447891Y701657D01*
X449649D01*
X449985Y701520D01*
X450455Y700907D01*
X451822Y699859D01*
X453412Y699200D01*
X455120Y698975D01*
X456827Y699200D01*
X458418Y699859D01*
X459784Y700907D01*
X460832Y702273D01*
X461491Y703864D01*
X461716Y705572D01*
X461491Y707279D01*
X460832Y708870D01*
X459784Y710236D01*
X458418Y711284D01*
X456827Y711943D01*
X455120Y712168D01*
D02*
G37*
G36*
X1019000Y780972D02*
X1016248Y780610D01*
X1013684Y779548D01*
X1011482Y777859D01*
X1009793Y775657D01*
X1008731Y773093D01*
X1008369Y770341D01*
X1008731Y767590D01*
X1009793Y765026D01*
X1011482Y762824D01*
X1013684Y761135D01*
X1016248Y760073D01*
X1019000Y759710D01*
X1021751Y760073D01*
X1024315Y761135D01*
X1026517Y762824D01*
X1028206Y765026D01*
X1029268Y767590D01*
X1029631Y770341D01*
X1029268Y773093D01*
X1028206Y775657D01*
X1026517Y777859D01*
X1024315Y779548D01*
X1021751Y780610D01*
X1019000Y780972D01*
D02*
G37*
G36*
X882348Y791416D02*
X880640Y791191D01*
X879050Y790532D01*
X877683Y789484D01*
X876635Y788118D01*
X875976Y786527D01*
X875751Y784819D01*
X875976Y783112D01*
X876635Y781521D01*
X877683Y780155D01*
X879050Y779107D01*
X880640Y778448D01*
X882348Y778223D01*
X884055Y778448D01*
X885646Y779107D01*
X887012Y780155D01*
X888060Y781521D01*
X888719Y783112D01*
X888944Y784819D01*
X888719Y786527D01*
X888060Y788118D01*
X887012Y789484D01*
X885646Y790532D01*
X884055Y791191D01*
X882348Y791416D01*
D02*
G37*
G36*
X551640Y817578D02*
X549932Y817353D01*
X548341Y816694D01*
X547195Y815814D01*
X546048Y816694D01*
X544457Y817353D01*
X542750Y817578D01*
X541042Y817353D01*
X539451Y816694D01*
X538085Y815646D01*
X537037Y814280D01*
X536378Y812689D01*
X536153Y810982D01*
X536378Y809274D01*
X537037Y807683D01*
X538085Y806317D01*
X539451Y805269D01*
X541042Y804610D01*
X542750Y804385D01*
X544457Y804610D01*
X546048Y805269D01*
X547195Y806149D01*
X548341Y805269D01*
X549932Y804610D01*
X551640Y804385D01*
X553347Y804610D01*
X554938Y805269D01*
X556304Y806317D01*
X557352Y807683D01*
X558011Y809274D01*
X558236Y810982D01*
X558011Y812689D01*
X557352Y814280D01*
X556304Y815646D01*
X554938Y816694D01*
X553347Y817353D01*
X551640Y817578D01*
D02*
G37*
G36*
X588470Y782018D02*
X586762Y781793D01*
X585172Y781134D01*
X583805Y780086D01*
X582757Y778720D01*
X582098Y777129D01*
X581873Y775422D01*
X582098Y773714D01*
X582757Y772123D01*
X583805Y770757D01*
X585172Y769709D01*
X586762Y769050D01*
X588470Y768825D01*
X590177Y769050D01*
X591768Y769709D01*
X593134Y770757D01*
X594182Y772123D01*
X594841Y773714D01*
X595066Y775422D01*
X594841Y777129D01*
X594182Y778720D01*
X593134Y780086D01*
X591768Y781134D01*
X590177Y781793D01*
X588470Y782018D01*
D02*
G37*
G36*
X1044400Y780972D02*
X1041648Y780610D01*
X1039084Y779548D01*
X1036882Y777859D01*
X1035193Y775657D01*
X1034131Y773093D01*
X1033769Y770341D01*
X1034131Y767590D01*
X1035193Y765026D01*
X1036882Y762824D01*
X1039084Y761135D01*
X1041648Y760073D01*
X1044400Y759710D01*
X1047151Y760073D01*
X1049715Y761135D01*
X1051917Y762824D01*
X1053606Y765026D01*
X1054668Y767590D01*
X1055031Y770341D01*
X1054668Y773093D01*
X1053606Y775657D01*
X1051917Y777859D01*
X1049715Y779548D01*
X1047151Y780610D01*
X1044400Y780972D01*
D02*
G37*
G36*
X897588Y775160D02*
X895880Y774935D01*
X894289Y774276D01*
X892923Y773228D01*
X891875Y771862D01*
X891216Y770271D01*
X890991Y768564D01*
X891216Y766856D01*
X891875Y765265D01*
X892923Y763899D01*
X894289Y762851D01*
X895880Y762192D01*
X897588Y761967D01*
X899295Y762192D01*
X900886Y762851D01*
X902252Y763899D01*
X903300Y765265D01*
X903959Y766856D01*
X904184Y768564D01*
X903959Y770271D01*
X903300Y771862D01*
X902252Y773228D01*
X900886Y774276D01*
X899295Y774935D01*
X897588Y775160D01*
D02*
G37*
G36*
X352254Y653574D02*
X329745D01*
Y631065D01*
X352254D01*
Y653574D01*
D02*
G37*
G36*
X930608Y676100D02*
X928900Y675875D01*
X927309Y675216D01*
X925943Y674168D01*
X924895Y672802D01*
X924236Y671211D01*
X924011Y669503D01*
X924236Y667796D01*
X924895Y666205D01*
X925943Y664839D01*
X927309Y663791D01*
X928900Y663132D01*
X930608Y662907D01*
X932315Y663132D01*
X933906Y663791D01*
X935272Y664839D01*
X936320Y666205D01*
X936979Y667796D01*
X937204Y669503D01*
X936979Y671211D01*
X936320Y672802D01*
X935272Y674168D01*
X933906Y675216D01*
X932315Y675875D01*
X930608Y676100D01*
D02*
G37*
G36*
X668734Y644096D02*
X667026Y643871D01*
X665435Y643212D01*
X664069Y642164D01*
X663021Y640798D01*
X662362Y639207D01*
X662137Y637500D01*
X662362Y635792D01*
X663021Y634201D01*
X664069Y632835D01*
X665435Y631787D01*
X667026Y631128D01*
X668734Y630903D01*
X670441Y631128D01*
X672032Y631787D01*
X673398Y632835D01*
X674446Y634201D01*
X675105Y635792D01*
X675330Y637500D01*
X675105Y639207D01*
X674446Y640798D01*
X673398Y642164D01*
X672032Y643212D01*
X670441Y643871D01*
X668734Y644096D01*
D02*
G37*
G36*
X520132Y654992D02*
X517903Y654698D01*
X515826Y653838D01*
X514042Y652469D01*
X512673Y650685D01*
X511812Y648608D01*
X511519Y646378D01*
X511812Y644149D01*
X512673Y642071D01*
X514042Y640287D01*
X515826Y638919D01*
X516359Y638698D01*
Y636533D01*
X515826Y636312D01*
X514042Y634943D01*
X512673Y633159D01*
X511812Y631082D01*
X511519Y628852D01*
X511812Y626623D01*
X512673Y624545D01*
X514042Y622761D01*
X515826Y621393D01*
X517903Y620532D01*
X520132Y620238D01*
X522362Y620532D01*
X524439Y621393D01*
X526223Y622761D01*
X527592Y624545D01*
X528453Y626623D01*
X528746Y628852D01*
X528453Y631082D01*
X527592Y633159D01*
X526223Y634943D01*
X524439Y636312D01*
X523906Y636533D01*
Y638698D01*
X524439Y638919D01*
X526223Y640287D01*
X527592Y642071D01*
X528453Y644149D01*
X528746Y646378D01*
X528453Y648608D01*
X527592Y650685D01*
X526223Y652469D01*
X524439Y653838D01*
X522362Y654698D01*
X520132Y654992D01*
D02*
G37*
G36*
X918416Y640032D02*
X916708Y639807D01*
X915117Y639148D01*
X913751Y638100D01*
X912703Y636734D01*
X912044Y635143D01*
X911819Y633436D01*
X912044Y631728D01*
X912703Y630137D01*
X913751Y628771D01*
X915117Y627723D01*
X916708Y627064D01*
X918416Y626839D01*
X920123Y627064D01*
X921714Y627723D01*
X923080Y628771D01*
X924128Y630137D01*
X924787Y631728D01*
X925012Y633436D01*
X924787Y635143D01*
X924128Y636734D01*
X923080Y638100D01*
X921714Y639148D01*
X920123Y639807D01*
X918416Y640032D01*
D02*
G37*
G36*
X1028270Y676608D02*
X1026562Y676383D01*
X1024971Y675724D01*
X1023605Y674676D01*
X1022557Y673310D01*
X1021898Y671719D01*
X1021673Y670012D01*
X1021898Y668304D01*
X1022557Y666713D01*
X1023605Y665347D01*
X1024971Y664299D01*
X1026562Y663640D01*
X1028270Y663415D01*
X1029977Y663640D01*
X1031568Y664299D01*
X1032934Y665347D01*
X1033982Y666713D01*
X1034641Y668304D01*
X1034866Y670012D01*
X1034641Y671719D01*
X1033982Y673310D01*
X1032934Y674676D01*
X1031568Y675724D01*
X1029977Y676383D01*
X1028270Y676608D01*
D02*
G37*
G36*
X705818Y750014D02*
X704110Y749789D01*
X702520Y749130D01*
X701153Y748082D01*
X700105Y746716D01*
X699446Y745125D01*
X699221Y743418D01*
X699446Y741710D01*
X700105Y740119D01*
X701153Y738753D01*
Y738176D01*
X700105Y736810D01*
X699446Y735219D01*
X699221Y733512D01*
X699446Y731804D01*
X700105Y730213D01*
X700337Y729911D01*
X700974Y728431D01*
X700337Y726952D01*
X700105Y726650D01*
X699446Y725059D01*
X699221Y723352D01*
X699446Y721644D01*
X700105Y720053D01*
X700337Y719751D01*
X700974Y718271D01*
X700337Y716792D01*
X700105Y716490D01*
X699446Y714899D01*
X699221Y713192D01*
X699446Y711484D01*
X700105Y709893D01*
X700337Y709591D01*
X700974Y708111D01*
X700337Y706632D01*
X700105Y706330D01*
X699446Y704739D01*
X699221Y703031D01*
X699446Y701324D01*
X700105Y699733D01*
X701153Y698367D01*
X702520Y697319D01*
X704110Y696660D01*
X705818Y696435D01*
X707525Y696660D01*
X709116Y697319D01*
X710482Y698367D01*
X711530Y699733D01*
X712189Y701324D01*
X712414Y703031D01*
X712189Y704739D01*
X711530Y706330D01*
X711298Y706632D01*
X710661Y708111D01*
X711298Y709591D01*
X711530Y709893D01*
X712189Y711484D01*
X712414Y713192D01*
X712189Y714899D01*
X711530Y716490D01*
X711298Y716792D01*
X710661Y718271D01*
X711298Y719751D01*
X711530Y720053D01*
X712189Y721644D01*
X712414Y723352D01*
X712189Y725059D01*
X711530Y726650D01*
X711298Y726952D01*
X710661Y728431D01*
X711298Y729911D01*
X711530Y730213D01*
X712189Y731804D01*
X712414Y733512D01*
X712189Y735219D01*
X711530Y736810D01*
X710482Y738176D01*
Y738753D01*
X711530Y740119D01*
X712189Y741710D01*
X712414Y743418D01*
X712189Y745125D01*
X711530Y746716D01*
X710482Y748082D01*
X709116Y749130D01*
X707525Y749789D01*
X705818Y750014D01*
D02*
G37*
G36*
X893524Y702262D02*
X891816Y702037D01*
X890226Y701378D01*
X888859Y700330D01*
X888224Y699502D01*
X887621Y699335D01*
X886472D01*
X885869Y699502D01*
X885234Y700330D01*
X883868Y701378D01*
X882277Y702037D01*
X880570Y702262D01*
X878862Y702037D01*
X877271Y701378D01*
X875905Y700330D01*
X874857Y698964D01*
X874198Y697373D01*
X873973Y695666D01*
X874198Y693958D01*
X874857Y692367D01*
X875905Y691001D01*
X877271Y689953D01*
X878862Y689294D01*
X880570Y689069D01*
X882277Y689294D01*
X883868Y689953D01*
X885234Y691001D01*
X885869Y691829D01*
X886472Y691996D01*
X887621D01*
X888224Y691829D01*
X888859Y691001D01*
X890226Y689953D01*
X891816Y689294D01*
X893524Y689069D01*
X895231Y689294D01*
X896822Y689953D01*
X898188Y691001D01*
X899236Y692367D01*
X899895Y693958D01*
X900120Y695666D01*
X899895Y697373D01*
X899236Y698964D01*
X898188Y700330D01*
X896822Y701378D01*
X895231Y702037D01*
X893524Y702262D01*
D02*
G37*
G36*
X1041860Y707088D02*
X1040152Y706863D01*
X1038561Y706204D01*
X1037195Y705156D01*
X1036147Y703790D01*
X1035488Y702199D01*
X1035263Y700491D01*
X1035488Y698784D01*
X1036147Y697193D01*
X1037195Y695827D01*
X1038561Y694779D01*
X1040152Y694120D01*
X1041860Y693895D01*
X1043567Y694120D01*
X1045158Y694779D01*
X1046524Y695827D01*
X1047572Y697193D01*
X1048231Y698784D01*
X1048456Y700491D01*
X1048231Y702199D01*
X1047572Y703790D01*
X1046524Y705156D01*
X1045158Y706204D01*
X1043567Y706863D01*
X1041860Y707088D01*
D02*
G37*
G36*
X1054078Y668200D02*
X1052370Y667975D01*
X1050779Y667316D01*
X1049413Y666268D01*
X1049195Y665984D01*
X1046742D01*
X1046524Y666268D01*
X1045158Y667316D01*
X1043567Y667975D01*
X1041860Y668200D01*
X1040152Y667975D01*
X1038561Y667316D01*
X1037195Y666268D01*
X1036147Y664902D01*
X1035488Y663311D01*
X1035263Y661603D01*
X1035488Y659896D01*
X1036147Y658305D01*
X1037195Y656939D01*
X1038561Y655891D01*
X1040152Y655232D01*
X1041860Y655007D01*
X1043567Y655232D01*
X1045158Y655891D01*
X1046524Y656939D01*
X1046742Y657223D01*
X1049195D01*
X1049413Y656939D01*
X1050779Y655891D01*
X1052370Y655232D01*
X1054078Y655007D01*
X1055785Y655232D01*
X1057376Y655891D01*
X1058742Y656939D01*
X1059790Y658305D01*
X1060449Y659896D01*
X1060674Y661603D01*
X1060449Y663311D01*
X1059790Y664902D01*
X1058742Y666268D01*
X1057376Y667316D01*
X1055785Y667975D01*
X1054078Y668200D01*
D02*
G37*
G36*
X341000Y692060D02*
X337987Y691663D01*
X335180Y690500D01*
X332769Y688650D01*
X330919Y686240D01*
X329756Y683432D01*
X329360Y680420D01*
X329756Y677407D01*
X330919Y674600D01*
X332769Y672189D01*
X335180Y670339D01*
X337987Y669176D01*
X341000Y668780D01*
X344012Y669176D01*
X346820Y670339D01*
X349230Y672189D01*
X351080Y674600D01*
X352243Y677407D01*
X352640Y680420D01*
X352243Y683432D01*
X351080Y686240D01*
X349230Y688650D01*
X346820Y690500D01*
X344012Y691663D01*
X341000Y692060D01*
D02*
G37*
%LPD*%
D68*
Y756620D02*
D03*
D71*
X267160Y365211D02*
D03*
Y355051D02*
D03*
Y344892D02*
D03*
X297640Y334731D02*
D03*
X287480D02*
D03*
X277320D02*
D03*
X267160D02*
D03*
X1039320D02*
D03*
X1049480D02*
D03*
X1069800Y365211D02*
D03*
Y355051D02*
D03*
X1059640Y334731D02*
D03*
X1069800Y344892D02*
D03*
Y334731D02*
D03*
Y781771D02*
D03*
X1039320Y812252D02*
D03*
X1049480D02*
D03*
X1069800Y791932D02*
D03*
X1059640Y812252D02*
D03*
X1069800Y802092D02*
D03*
Y812252D02*
D03*
X267160Y781771D02*
D03*
X297640Y812252D02*
D03*
X267160Y791932D02*
D03*
X287480Y812252D02*
D03*
X267160Y802092D02*
D03*
X277320Y812252D02*
D03*
X267160D02*
D03*
X566880Y789391D02*
D03*
X556720D02*
D03*
X546560D02*
D03*
X579580Y769072D02*
D03*
X627840Y763991D02*
D03*
X397000Y374571D02*
D03*
X417000D02*
D03*
X437000D02*
D03*
X527000D02*
D03*
X607000D02*
D03*
X627000D02*
D03*
X647000D02*
D03*
X667000D02*
D03*
X687000D02*
D03*
X707000D02*
D03*
X727000D02*
D03*
X747000D02*
D03*
X767000D02*
D03*
X787000D02*
D03*
X397000Y394571D02*
D03*
Y414571D02*
D03*
Y434571D02*
D03*
Y454571D02*
D03*
Y484571D02*
D03*
Y524571D02*
D03*
Y544571D02*
D03*
Y584571D02*
D03*
Y624571D02*
D03*
Y644572D02*
D03*
X417000D02*
D03*
X437000D02*
D03*
X457000D02*
D03*
X477000D02*
D03*
X497000D02*
D03*
X537000D02*
D03*
X557000D02*
D03*
X577000D02*
D03*
X677000D02*
D03*
X697000D02*
D03*
X717000D02*
D03*
X737000D02*
D03*
X757000D02*
D03*
X777000D02*
D03*
X787000Y394571D02*
D03*
Y414571D02*
D03*
Y434571D02*
D03*
Y454571D02*
D03*
Y474571D02*
D03*
Y494571D02*
D03*
Y534571D02*
D03*
Y554571D02*
D03*
Y574571D02*
D03*
Y604571D02*
D03*
X663400Y710651D02*
D03*
X673560D02*
D03*
X683720D02*
D03*
X588470Y761451D02*
D03*
M02*
